<?xml version="1.0" encoding="iso-8859-1"?>
<!-- Generator: Adobe Illustrator 12.0.1, SVG Export Plug-In  -->
<!DOCTYPE svg PUBLIC "-//W3C//DTD SVG 1.1 Tiny//EN" "http://www.w3.org/Graphics/SVG/1.1/DTD/svg11-tiny.dtd" [
	<!ENTITY ns_flows "http://ns.adobe.com/Flows/1.0/">
	<!ENTITY ns_svg "http://www.w3.org/2000/svg">
	<!ENTITY ns_xlink "http://www.w3.org/1999/xlink">
]>
<svg  version="1.1" baseProfile="tiny"
	 xmlns="&ns_svg;" xmlns:xlink="&ns_xlink;" xmlns:a="http://ns.adobe.com/AdobeSVGViewerExtensions/3.0/"
	 width="1114" height="1117" viewBox="-0.38 -0.5 1114 1117" xml:space="preserve">
<defs>
</defs>
<path fill-rule="evenodd" d="M537.62,0.5c61.9-2.95,125.34,7.46,179,24c9.28,2.86,18.36,4.72,27,8c41.04,15.6,81.26,36.97,117,59
	c28.55,17.6,54.22,40.27,79,62c6.24,5.47,11.12,12.57,17,19c5.65,6.17,12.57,11.04,18,17c11.05,12.13,21.06,26.1,31,39
	c19.77,25.66,38.35,57.22,53,88c15,31.5,29,66.05,38,103c4.54,18.66,9.53,37.66,12,57c11.79,92.23,1.53,190.38-26,267
	c-27.48,76.46-69.75,143.13-120,197c-16.81,18.02-36.02,34.33-56,50c-6.45,5.06-12.58,10.83-19,16c-6.52,5.25-14.74,9-22,14
	c-72.36,49.82-175.94,91.12-289,94c-10.66,0.27-20.5,1.71-31,1c-30.69-2.07-61.99-3.91-92-10c-10.65-2.16-20.86-3.02-31-5
	c-9.17-1.79-18-5.46-27-8c-18.1-5.1-34.94-11.03-52-18c-16.56-6.77-33.14-12.68-48-21c-3.83-2.14-7.02-5-11-7
	c-26.32-13.21-50.52-31.38-74-49c-13.13-9.86-25.17-20.98-38-32c-11.35-9.74-22.13-19.21-32-31c-11.09-13.25-24.14-28.27-35-43
	c-9.93-13.46-18.33-28.52-28-43c-8.76-13.12-17.41-29.86-25-45c-7.49-14.94-15.16-32.95-21-50c-12.1-35.35-20.91-72.16-26-115
	c-1.14-9.62-3.6-18.96-4-29c-0.42-10.33-0.45-21.06-1-32c-4.19-82.94,13.28-163.11,39-231c39.06-103.1,102.89-175.75,184-239
	c26.27-20.49,57.12-38.23,88-53c30.5-14.59,64.54-28.63,100-37c37.62-8.88,78.25-17,124-17C536.29,0.5,536.96,0.53,537.62,0.5z
	 M715.62,35.5c-62.23-19.15-135.92-28.07-200-23c-28.61,2.26-53.41,5.15-78,11c-32.5,7.73-62.05,16.62-92,29
	c-56.82,23.49-105.91,54.33-150,93c-11.09,9.73-22.16,18.22-32,28c-11.11,11.05-22.32,25.27-32,36c-1.31,1.46-1.67,3.25-3,5
	c-17.4,22.92-34.73,47.39-49,72c-1.94,3.35-3.26,6.54-5,10c-17.03,33.88-31.97,69.89-43,109c-4.49,15.94-7.61,32.5-11,50
	c-20.35,104.96-9.49,204.18,23,296c8.02,22.66,18.46,44.3,28,63c7.47,14.64,13.48,26.88,22,39c4.21,5.99,7.98,12.04,12,18
	c32.59,48.32,73.94,90.54,120,123c11.79,8.31,23.59,17.4,36,25c39.45,24.18,77.88,44.56,124,58c15.93,4.64,31.35,9.08,48,13
	c48.28,11.36,100.53,16.04,152,13c79.24-4.68,166.47-31.3,230-66c26.18-14.3,51.56-30.24,74-48c22.77-18.02,44.83-36.23,64-57
	c29.32-31.77,56.96-65.99,78-104c14.36-25.94,27.15-53.37,38-83c5.43-14.82,11.37-30.73,15-46c1.93-8.12,2.13-17.38,4-26
	c1.8-8.29,4.75-15.94,6-24c11.2-71.96,9.43-149.01-6-215c-7.74-33.1-19.61-62.48-31-91c-29.01-72.62-71.66-126.99-125-179
	C875.2,109.35,801.72,61.99,715.62,35.5z"/>
<path fill-rule="evenodd" d="M454.62,51.5c-0.76,7.24-13.24,2.76-20,4c-5.04-5.48-6.16-15.25-1-18
	C442.25,32.9,447.58,48.55,454.62,51.5z"/>
<path fill-rule="evenodd" d="M682.62,41.5c-0.15,6.85-5.85,8.15-6,15c0.78,3.85,5.51,2.94,8,1c6.89,2.37,11.8,0.73,19,3
	c0.58,3.25-0.68,4.65-1,7c-11.39,2.63-30.08-6.95-34,4c8.28,4.34,20.2,0.73,29,3c0.58,3.25-0.68,4.65-1,7c-3.83-0.86-8.14,1.01-12,1
	c-7.59-0.02-17.68-4.33-23,2c13.08,7.66,49.25-2.69,46,18c-8.45,2.65-12.31-6.68-23-5c-1.58,4.33,2.78,7.07,5,10
	c10.76,14.19,25.73,27.93,38,42c-12.71-0.96-21.22-6.11-32-9c1.36-14.02-5.27-20.06-12-26c-8.29,9.37-8.42,26.92-14,39
	c-8.37-2.63-10.46-11.54-18-15c-6.71-0.71-10.97,1.03-17,1c0.27-12.11,0.6-19.05,5-32c-9.19,1.47-12.08,9.26-18,14
	c-9.08-0.42-13.99,3.34-24,2c2.13-5.4,8.66-5.58,13-8c10.06-5.61,19.77-12.86,29-19c-7.04-5.32-21.09,5.16-23-7
	c8.91-7.82,31.63,2.98,36-8c-2.05-5.35-10,1.21-12-1c-0.89-2.44-2.33-4.34-2-8c8.97-3.99,19.85,4.87,22-6
	c-4.19-4.38-12.18-2.29-19-2c-0.85-2.74-3.24-7.26-1-10c7.14,1.19,16.32,0.34,23,2c4.66-4.01,3.64-13.7,7-19
	C676.6,36.85,678.65,40.13,682.62,41.5z M640.62,105.5c9.04-0.47,27.87,1.55,36,2C673.55,87.38,646.72,92.08,640.62,105.5z
	 M646.62,115.5c1.62,4.71,14.04-1.38,14,5c-0.88,7.45-18.61-1.94-17,8c3.15,2.51,8.24,3.09,14,3c2,2.67-0.37,9.71,6,8
	c3.68-8.87,4.6-18,3-28C660.52,110.51,647.31,108.07,646.62,115.5z"/>
<path fill-rule="evenodd" d="M402.62,75.5c-3.06,4.41-11.2,7.08-16,6c-9.17-2.07-10.32-14.34-2-19
	C391.46,65.99,396.52,71.26,402.62,75.5z"/>
<path fill-rule="evenodd" d="M480.62,72.5c-6.34,7.66-13.28,14.72-20,22c4.72,3.21,10.77,7.34,17,10c1.11,0.47,2.92-0.53,4,0
	c5.45,2.68,10.52,5.65,16,8c5.37,2.3,11.26,4.11,14,8c-2.07,3.89-11.37,1.64-17,2c-3.97,0.26-7.16,1.75-10,1
	c-4.29-1.13-3.94-4.05-7-7c-5.97-5.75-13.52-10.91-20-13c-1.37,14.37,5.74,28.92,7,44c-10.61-0.79-24.01-7.27-36-10
	c6.86-4.23,13.84,2.24,23-1c-3.21-19.32-7.48-42.12-18-57c-5.68-0.01-5.92,5.42-10,7c-3.53-0.47-5.47-2.53-8-4
	c6.93-9.43,23.11-13.72,37-13c0.57,4.8-3.38,17.27,2,22C466.65,88.89,467.05,58.22,480.62,72.5z"/>
<path fill-rule="evenodd" d="M407.62,81.5c0.16,9.49-15.98,16.03-25,22c-6.12,4.06-11.76,8.66-15,0c9.28-9.58,25.27-13.36,36-22
	C404.96,81.5,406.29,81.5,407.62,81.5z"/>
<path fill-rule="evenodd" d="M438.62,93.5c1.89,10.52-6.84,18.28-6,31c-4.93,6.41-16.26,8.3-16,17c-6.47,1.2-10.46,4.87-15,8
	c-6.72-4.61-12.75-9.92-18-16c7.83-7.63,18.68-17.14,34-14c0.33,4.18-3.51,7.76-1,11c6.81-5.26,12.9-16.33,11-27
	c-5.54-0.11-11.57,8.04-15,1C418.48,98.03,426.48,93.69,438.62,93.5z M395.62,135.5c5.58,10.86,17.74-4.65,8-9
	C400.56,125.14,395.74,130.59,395.62,135.5z"/>
<path fill-rule="evenodd" fill="#FFFFFF" d="M676.62,107.5c-8.13-0.45-26.96-2.47-36-2C646.72,92.08,673.55,87.38,676.62,107.5z"/>
<path fill-rule="evenodd" d="M407.62,97.5c-2.01,9.66-16.35,6.98-19,16c-2.81-0.85-4.49-2.84-4-7
	C392.66,104.44,398.93,95.61,407.62,97.5z"/>
<path fill-rule="evenodd" d="M408.62,106.5c1.05,6.24-5.85,7.99-9,10c-3.37,2.14-7.82,5.77-12,6c0.13-1.79-1.22-2.11-1-4
	C392.17,112.71,399.04,108.25,408.62,106.5z"/>
<path fill-rule="evenodd" fill="#FFFFFF" d="M666.62,111.5c1.6,10,0.68,19.13-3,28c-6.37,1.71-4-5.33-6-8
	c-5.76,0.09-10.85-0.49-14-3c-1.61-9.94,16.12-0.55,17-8c0.04-6.38-12.38-0.29-14-5C647.31,108.07,660.52,110.51,666.62,111.5z"/>
<path fill-rule="evenodd" fill="#FFFFFF" d="M403.62,126.5c9.74,4.35-2.42,19.86-8,9C395.74,130.59,400.56,125.14,403.62,126.5z"/>
<path fill-rule="evenodd" d="M242.62,143.5c-2.23,8.89-13.08,20.19-5,30c15.56,0.16,32.58-5.79,49-8c-4.09,4.66-9.53,11.78-15,16
	c-2.14,1.65-9.33,6.03-12,6c-4.34-0.04-8.49-5.9-13-7c-10.79-2.63-19.34,4.04-31,3c-0.78,4.82,0.84,13.99,2,20
	c5.86-1.48,9.81-13.52,16-18c4.28-0.28,5.1,2.9,7,5c-2.34,10-7.93,16.74-14,23c-3.47,0.8-3.84-1.49-7-1c-3.28,5.18-3.12,12.61-4,19
	c-0.94,6.85-0.24,15.27-5,20c-0.46-4.46-0.89-8.18,0-14c-5.76-2.16-15.8-0.67-19,3c12.06,12.94,27.92,22.08,40,35
	c-0.96,4.04-4.65,5.35-8,7c-3.27-2.61-4.3-6.87-7-10c-4.08-4.73-9.82-8.38-15-13c-14.23-12.7-29.95-26.18-46-38
	c4.87-8.8,9.72-17.61,13-28c4.41-1.2,8.71-6.92,14-4c0.01,5.98-4.43,17.5,1,24c2.11,2.52,5.1,2.81,9,4c0.49-13.54-2.6-32.02-6-45
	c2.97,0.8,5.24-2.86,8-3c1.15-0.06,3.39,1.87,3,2c5.51-1.85,8.11-9.49,17-6c0.77,3.9-3.7,5.18-1,8c1.88,1.82,7.05-1.56,10-2
	c2.52-3.11,5.67-14.81,0-17c-5.35,0.65-3.21,8.79-10,8c-0.73-0.93-1.82-1.52-3-2c1.17-5.59,9.82-16.27,17-18
	C231.92,141.47,237.5,142.42,242.62,143.5z M202.62,179.5c-7.26-1-5.08,8.86-3,12c2.66-0.01,5.71,0.38,7-1
	C206.77,185.35,204.64,182.48,202.62,179.5z M199.62,210.5c3.33-1,6.87-1.8,10-3c0.43-4.1-0.93-6.41-2-9
	C200.26,197.37,196.41,204.3,199.62,210.5z M186.62,234.5c2.47-0.11,6.14-2.97,7-6c-2.41-3.93-6.09-6.58-12-7
	c-2.81-5.85-8.29-9.04-9-17c-1,0-2,0-3,0C159.99,213.9,181.22,234.73,186.62,234.5z M200.62,221.5c3.86,2.8,5.76,7.57,10,10
	c-0.48-5.19,1.08-12.41-1-16C205.29,216.17,201.4,217.27,200.62,221.5z"/>
<path fill-rule="evenodd" d="M876.62,147.5c1.02,2.83,3.48,7.79,2,10c-9,1.33-17.99,2.67-25,6c3.66,7.77,16.33,7.89,24,4
	c3.06,1.27,2.94,5.73,6,7c12.94,0.75,26.24-2.79,40-5c0.55,4.11,2.87,6.47,3,11c-5.65,2.98-16.14-2.95-21,2
	c11.12,8.63,26.01,18.54,30,31c-12.55,8.79-26.77,15.9-37,27c-0.8-0.53-1.62-1.04-3-1c-11.58-8.42-20.08-19.92-34-26
	c1.01-4.66,3.42-7.91,6-11c-2.18-3.15-7.55-3.11-10-6c0.1-3.56,5.05-2.29,5-6c-0.3-2.04-2-2.66-3-4c-4.78,0.22-4.29,5.71-8,7
	c-6.08-3.58-13.57-5.76-22-7c-9.54,4.46-15.55,12.45-21,21c-4.3-1.7-5.78-6.22-8-10c7.22-4.78,15.65-8.35,24-12
	c2.08-0.26,0.27-4.39,2-5c8.79-1.21,15.48-4.52,23-7c-3.08-4.92-10.37-5.63-18-6c-1.95-4.55-2.39-6.03,0-10
	C849.19,160.47,859.4,148.14,876.62,147.5z M847.62,183.5c9.57,1.54,24.1,1.7,22,14c6.93-3.4,10.41-10.26,15-16
	C875.87,176.56,853.83,174.93,847.62,183.5z M885.62,194.5c6.71-1.29,16.21,0.21,18-6C897.12,183.51,888.01,189.17,885.62,194.5z
	 M909.62,217.5c4.48-4.06,12.18-9.28,12-14c-0.13-3.47-6.14-10.24-11-9c-0.36,0.09-0.19,2.92-1,3c-4.23,0.4-8.75-1.04-13,1
	c-0.33,3.66,1.11,5.56,2,8c6.46,1.13,7.27-3.39,13-3c0.84,2.49,1.31,5.36,1,9c-5.95-2.72-11.43,1.27-15,4
	c-4.26-5.74-19.89-0.11-22-8c5.19-0.48,12.41,1.08,16-1c-0.9-3.43-2.21-6.46-4-9c-10.44-1.1-13.68,4.98-16,12
	c8.23,5.44,14.15,13.18,23,18C899.01,226.81,903.92,222.66,909.62,217.5z"/>
<path fill-rule="evenodd" fill="#FFFFFF" d="M577.62,162.5c0.06,22.96-2.63,42.46-3,67c7.23,1.77,16.83,1.17,24,3
	c-0.74,8.31-0.71,17.13-3,26c-6.5-0.84-14.09-0.58-20-2c-3.45,9.4-2.99,27.42-3,37c6.18,2.39,14.17,0.3,19,2
	c-1.99,16.34-3.02,33.65-6,49c-9.35-0.24-16.82-0.34-27-1c-1.17-8.24-0.89-13.61-1-24c-39.52,2.76-86.57,13.79-116,36
	c3.11,8.22,7.97,14.7,13,21c7.6-0.63,13.61-6.42,21-10c21.19-10.26,49.81-17.95,78-19c0.77,5.8,1.55,13.96,0,22
	c-33.73,4.27-62.7,13.3-85,29c6.53,14.13,16.43,24.91,23,39c-10.56,7.11-18.39,16.94-27,26c-4.66-2.34-9.12-4.88-11-10
	c8.95-8.09,17.42-21.86,29-24c-15.39-27.28-36.41-48.92-53-75c-31.44,18.89-52.2,48.47-73,78c-13.38-5.95-25.17-13.5-37-21
	c16.7-32.63,40.51-58.16,67-81c7.41,3.93,10.04,12.63,16,18c4.58,0.43,6.77-4.61,10-7c10.3-7.61,23.22-14.71,36-21
	c17.75-8.74,36.47-17.43,60-21c11.5-1.75,29.84-7.94,48-6c1.65-9.11,1.65-24.89,0-34c-10.32-3.87-22.22-0.64-33,1
	c-41.83,6.38-79.56,19.96-109,38c-6.72-4.95-10.6-12.74-13-22c40.62-25.71,90.17-42.49,155-44c-0.03-25.51,0.16-45.51,0-70
	C561.54,160.87,572.7,160.87,577.62,162.5z"/>
<path fill-rule="evenodd" fill="#FFFFFF" d="M454.62,174.5c5.52,2.6-2.7,3.76-3,4c-27.08,21.82-56.49,47.75-68,86
	c-24.37,5.16-48.25,8.35-71,14c-22.34,5.55-41.12,16.85-60,25C302.95,243.49,368.52,198.73,454.62,174.5z"/>
<path fill-rule="evenodd" fill="#FFFFFF" d="M884.62,181.5c-4.59,5.74-8.07,12.6-15,16c2.1-12.3-12.43-12.46-22-14
	C853.83,174.93,875.87,176.56,884.62,181.5z"/>
<path fill-rule="evenodd" fill="#FFFFFF" d="M206.62,190.5c-1.29,1.38-4.34,0.99-7,1c-2.08-3.14-4.26-13,3-12
	C204.64,182.48,206.77,185.35,206.62,190.5z"/>
<path fill-rule="evenodd" fill="#FFFFFF" d="M903.62,188.5c-1.79,6.21-11.29,4.71-18,6C888.01,189.17,897.12,183.51,903.62,188.5z"
	/>
<path fill-rule="evenodd" d="M265.62,196.5c-4.89,5.78-13.96,7.38-17,15c5.33,14.67,20.5,19.5,27,33c-9.79,3.11-19.51,2.24-30,3
	c2.24-4.09,8.7-3.97,10-9c-2.01-7.99-9.55-10.45-15-15c-8.48,2.75-7.12,19.89-20,15c3.23-9.03,8.8-17.24,14-25
	c3.72-5.55,8.47-10.4,13-16c2.17-2.68,4.11-4.74,7-7C259.4,191.38,264.44,192.01,265.62,196.5z"/>
<path fill-rule="evenodd" fill="#FFFFFF" d="M715.62,193.5c78.24,34.09,139.87,84.8,182,155c-31.27-25.73-66.91-47.09-119-52
	C762.8,256.99,742.7,221.75,715.62,193.5z"/>
<path fill-rule="evenodd" d="M832.62,193.5c-0.3,7.76-0.3,10.16-2,17c-5.18-2.65-9.94-8.21-8-15
	C826.2,195.07,827.96,192.83,832.62,193.5z"/>
<path fill-rule="evenodd" fill="#FFFFFF" d="M894.62,228.5c-8.85-4.82-14.77-12.56-23-18c2.32-7.02,5.56-13.1,16-12
	c1.79,2.54,3.1,5.57,4,9c-3.59,2.08-10.81,0.52-16,1c2.11,7.89,17.74,2.26,22,8c3.57-2.73,9.05-6.72,15-4c0.31-3.64-0.16-6.51-1-9
	c-5.73-0.39-6.54,4.13-13,3c-0.89-2.44-2.33-4.34-2-8c4.25-2.04,8.77-0.6,13-1c0.81-0.08,0.64-2.91,1-3c4.86-1.24,10.87,5.53,11,9
	c0.18,4.72-7.52,9.94-12,14C903.92,222.66,899.01,226.81,894.62,228.5z"/>
<path fill-rule="evenodd" d="M845.62,196.5c-1.25,6.25,2.71,11.49,0,16c-5.66-1.34-8.09-5.91-8-13
	C840.44,198.65,841.72,196.27,845.62,196.5z"/>
<path fill-rule="evenodd" fill="#FFFFFF" d="M207.62,198.5c1.07,2.59,2.43,4.9,2,9c-3.13,1.2-6.67,2-10,3
	C196.41,204.3,200.26,197.37,207.62,198.5z"/>
<path fill-rule="evenodd" fill="#FFFFFF" d="M169.62,204.5c1,0,2,0,3,0c0.71,7.96,6.19,11.15,9,17c5.91,0.42,9.59,3.07,12,7
	c-0.86,3.03-4.53,5.89-7,6C181.22,234.73,159.99,213.9,169.62,204.5z"/>
<path fill-rule="evenodd" d="M286.62,220.5c-5.67,3.55-10.63-1.18-15-3c-4.16-1.74-10.81-2.3-12-7c7.92-0.96,17.35-6.94,25-2
	C285.75,214.25,286.11,215.06,286.62,220.5z"/>
<path fill-rule="evenodd" d="M853.62,214.5c-4.76,7.24-11.94,12.06-18,18c-5-0.33-4.42-6.25-7-9
	C834.73,218.28,843.75,215.96,853.62,214.5z"/>
<path fill-rule="evenodd" fill="#FFFFFF" d="M209.62,215.5c2.08,3.59,0.52,10.81,1,16c-4.24-2.43-6.14-7.2-10-10
	C201.4,217.27,205.29,216.17,209.62,215.5z"/>
<path fill-rule="evenodd" d="M864.62,221.5c-3.41,6.64-10.14,7.68-11,15c-1.24,10.57,9.63,19.12,18,23c5.3-2.04,6.32-8.35,7-15
	c-5-1-4.89,3.11-9,3c-10.37-3.82-8.92-26.94,6-20c2.44,1.14,3.4,6.38,6,10c2.51,3.5,2.13,0.03,1,6c-2.02,10.64-1.53,25.87-6,35
	c-9.93-3.82-23.72-16.99-28-28c-4.61-11.83,2.08-21.59,10-33C862.8,216.65,862.58,220.21,864.62,221.5z M866.62,235.5
	c4.29,2.13,7.4,4.98,11,0c-2.63-2.37-4.38-5.62-9-6C867.73,231.28,865.83,232.04,866.62,235.5z"/>
<path fill-rule="evenodd" fill="#FFFFFF" d="M868.62,229.5c4.62,0.38,6.37,3.63,9,6c-3.6,4.98-6.71,2.13-11,0
	C865.83,232.04,867.73,231.28,868.62,229.5z"/>
<path fill-rule="evenodd" d="M235.62,234.5c1.16-0.16,1.78,0.22,2,1c1.37,8.29,4.9,14.43,7,22c-2.98,1.74-11.28,1.69-13-1
	C233.23,249.44,232.69,240.24,235.62,234.5z"/>
<path fill-rule="evenodd" d="M898.62,245.5c0.57,6.87,0.74,14.5-1,23c-1.67,0-3.33,0-5,0c-1.81-5.2-5.44-13.87-5-18
	C888.75,246.3,893.58,245.79,898.62,245.5z"/>
<path fill-rule="evenodd" fill="#FFFFFF" d="M710.62,271.5c0,5.51-6.1,13.1-9,19c-17.98-10.02-38.53-17.47-60-24
	c1.72-7.28,5.06-12.94,7-20C673.22,250.9,692.58,260.54,710.62,271.5z"/>
<path fill-rule="evenodd" fill="#FFFFFF" d="M381.62,272.5c-3.41,7.88-11.53,12.13-18,17c-19.05,14.34-36.34,31.96-52,51
	c-19.92,25.75-37.47,53.87-50,87c-23.86-6.26-44.77-20.4-67-25c2.03-6.31,4.28-12.39,7-18c14.22,4.45,25.61,11.72,39,17
	c10.12-9.22,13.17-22.74,20-34c6.55-10.79,13.71-21.79,21-32c14.87-20.84,32.79-37.87,50-56C348.25,275.68,367,271.41,381.62,272.5z
	"/>
<path fill-rule="evenodd" fill="#FFFFFF" d="M768.62,294.5c4.19-1.19,1.79,4.21,4,5c-6.14,9.52-11.4,19.93-21,26
	c-0.44-1.23-1.28-2.05-3-2C752.58,311.12,762.07,304.28,768.62,294.5z"/>
<path fill-rule="evenodd" fill="#FFFFFF" d="M782.62,302.5c24.61,3.04,45.14,10.07,64,21c-6.89,8.11-16.25,13.75-25,20
	c-12.08-12.92-24.23-25.77-38-37C782.85,305.61,782.55,304.24,782.62,302.5z"/>
<path fill-rule="evenodd" fill="#FFFFFF" d="M675.62,342.5c0.23,3.9-2.15,5.18-3,8c-7.31-1.69-12.56-5.44-19-8
	c-0.54,6.12,4.91,12.35,6,21c1.25,9.89-0.92,20.85,0,32c-0.42,2.95-4.61-0.77-5-1c-12.37-7.33-31.24-15.73-48-20
	c2.17-12.16,5.17-23.49,7-36c5.61-4.39,9.74-10.26,12-18C644.16,325.96,662.86,331.26,675.62,342.5z"/>
<path fill-rule="evenodd" d="M978.62,337.5c27.31,11.36,49.12,28.22,81,35c-0.66,6.57,1.8,10.18,0,13c-4.19,2.58-3.09-2.71-8-2
	c-4.55,8.04-4.34,18.24-6,28c-3.13,18.42-5.72,38.05-8,57c-4.28-2.93-5.37-9.61-7-15c-1.65-5.43-3.54-11.81-4-18
	c7.37-6.63,11.26-16.74,11-31c-13.21-4.79-14.52-21.48-24-30c-0.38-4.05,2.73-4.6,4-7c-4.07-3.61-10.59-10.06-18-7
	C991.12,354.33,982.86,347.93,978.62,337.5z M1031.62,384.5c1.99,3.92,1.88,10.37,7,12c5.07-12.34-2.78-24.78-15-26
	C1024.6,375.84,1029.18,379.68,1031.62,384.5z"/>
<path fill-rule="evenodd" d="M170.62,389.5c-7.75,6.25-17.07,10.93-27,15c-6.44,20.79-6.76,42.73-7,56c-32.16-0.19-61.12-8.64-88-18
	c1.04-37.58,3.81-75.87,25-98c1,0,2,0,3,0C100.71,366.75,138.94,374.85,170.62,389.5z M69.62,367.5c-5.23,6.11-9.69,12.98-9,25
	c3.59-0.66,7.75,3.22,9-1c0.76-3.05-5.15-4.61-5-10c6.73-0.6,10.91-3.76,17-5c3.11,6.32-5.87,10.92-3,17c5.09,1.26,13.24,3.84,18,0
	c-3.71-2.63-8.61-4.05-10-9c1.28-2.38,1.91-5.42,5-6c7.13,4.2,11,11.66,17,17c2.32,0.32,3.84-0.16,5-1c1.4-4.14-4.85-5.73-2-8
	c7.98,1.02,17.68,0.32,20,7c-5.49,2.51-11.57,4.43-18,6c2.25,9.75,10.14,13.86,16,20c1.9-7.1,0.98-17.02,7-20
	c5.03,2.99,10.61-2.03,13-5C128.66,381.28,96.31,374.4,69.62,367.5z M60.62,434.5c5.38,2.95,10.06,6.61,18,7
	c3.02,3.77,9.31,4.83,15,7c9.59,3.66,21.54,9.04,32,5c4.36-10.57-1-18.84-4-25c-4.82-9.89-8.72-20.61-16-26
	c-2.49-2.96-8.11-1.86-12-1c1.18,5.49,7.16,6.18,9,11c-2.03,6.7,0.37,11.53,1,21c-6.6,1.07-11.76,3.57-19,4
	c-1.41-13.95-4.64-25.6,2-36c-1.45-1.55-5.12-0.88-8-1c-3.5,7.4-2.09,21.24,0,29c-2.12,1.54-4.46,2.88-7,4
	c-4.07-9.82-1.96-23.72-3-32C50.81,394.31,58.22,426.71,60.62,434.5z M90.62,428.5c2.47,0.13,4.82,0.15,6-1
	c-1.19-6.14-0.81-13.85-7-15C85.34,416.39,88.91,424.52,90.62,428.5z"/>
<path fill-rule="evenodd" fill="#FFFFFF" d="M750.62,399.5c-15.32,12.02-30.44,24.23-46,36c-9-7.67-15.9-17.43-26-24
	c10.28-17.72,24.48-31.52,36-48C729.11,373,740.79,385.33,750.62,399.5z"/>
<path fill-rule="evenodd" d="M1028.62,429.5c-7.2-2.13-12.13-6.53-23-5c-2.74-17.59-12.91-27.76-20-41c2.71-9.29,6.57-17.43,16-20
	c6.47,9.08,12.34,20.2,18,31C1024.93,404.62,1033.27,416.27,1028.62,429.5z M998.62,375.5c-0.8,0.23-3.87,4.49-4,7
	c-0.16,3.15,3.84,4.2,4,9c2.65-0.02,5.89,0.55,6-2c-2.08-1.92-4.84-3.16-7-5c1.51-1.49,0.3-5.7,4-5c3.2,1.83,5.27,10.03,9,8
	C1006.84,384.38,1003.94,373.94,998.62,375.5z M1011.62,398.5c0.08,5.25,6.76,3.91,7,9c-0.42,1.91-0.36,4.3-3,4
	c-4.13-3.2-5.97-8.7-11-11c1.88,7.67,7.53,18.06,17,12c-1.45-5.22-3.13-10.21-5-15C1014.3,397.18,1012.78,397.66,1011.62,398.5z"/>
<path fill-rule="evenodd" fill="#FFFFFF" d="M149.62,394.5c-2.39,2.97-7.97,7.99-13,5c-6.02,2.98-5.1,12.9-7,20
	c-5.86-6.14-13.75-10.25-16-20c6.43-1.57,12.51-3.49,18-6c-2.32-6.68-12.02-5.98-20-7c-2.85,2.27,3.4,3.86,2,8
	c-1.16,0.84-2.68,1.32-5,1c-6-5.34-9.87-12.8-17-17c-3.09,0.58-3.72,3.62-5,6c1.39,4.95,6.29,6.37,10,9c-4.76,3.84-12.91,1.26-18,0
	c-2.87-6.08,6.11-10.68,3-17c-6.09,1.24-10.27,4.4-17,5c-0.15,5.39,5.76,6.95,5,10c-1.25,4.22-5.41,0.34-9,1
	c-0.69-12.02,3.77-18.89,9-25C96.31,374.4,128.66,381.28,149.62,394.5z"/>
<path fill-rule="evenodd" fill="#FFFFFF" d="M1023.62,370.5c12.22,1.22,20.07,13.66,15,26c-5.12-1.63-5.01-8.08-7-12
	C1029.18,379.68,1024.6,375.84,1023.62,370.5z"/>
<path fill-rule="evenodd" fill="#FFFFFF" d="M1010.62,387.5c-3.73,2.03-5.8-6.17-9-8c-3.7-0.7-2.49,3.51-4,5
	c2.16,1.84,4.92,3.08,7,5c-0.11,2.55-3.35,1.98-6,2c-0.16-4.8-4.16-5.85-4-9c0.13-2.51,3.2-6.77,4-7
	C1003.94,373.94,1006.84,384.38,1010.62,387.5z"/>
<path fill-rule="evenodd" d="M998.62,427.5c-15.19-3.17-26.81,4.94-40,7c-1.57-6.93,3.72-13.04,3-20c-0.85-8.13-8.35-10.85-10-18
	c8.88-3.57,18.53-8.78,26-12c7.58-3.27,12.5,13.23,15,19C996.02,411.35,1001.1,420.08,998.62,427.5z M978.62,410.5
	c-6.51-1.82-4.34-12.32-14-11c0.96,8.15,5.98,12.01,2,20c9.07,2.27,18.19-3.71,23-9c-1.46-8.2-5.25-14.08-12-17
	C973.96,399.32,988.42,407.34,978.62,410.5z"/>
<path fill-rule="evenodd" fill="#FFFFFF" d="M977.62,393.5c6.75,2.92,10.54,8.8,12,17c-4.81,5.29-13.93,11.27-23,9
	c3.98-7.99-1.04-11.85-2-20c9.66-1.32,7.49,9.18,14,11C988.42,407.34,973.96,399.32,977.62,393.5z"/>
<path fill-rule="evenodd" fill="#FFFFFF" d="M1016.62,397.5c1.87,4.79,3.55,9.78,5,15c-9.47,6.06-15.12-4.33-17-12
	c5.03,2.3,6.87,7.8,11,11c2.64,0.3,2.58-2.09,3-4c-0.24-5.09-6.92-3.75-7-9C1012.78,397.66,1014.3,397.18,1016.62,397.5z"/>
<path fill-rule="evenodd" fill="#FFFFFF" d="M68.62,401.5c1.04,8.28-1.07,22.18,3,32c2.54-1.12,4.88-2.46,7-4
	c-2.09-7.76-3.5-21.6,0-29c2.88,0.12,6.55-0.55,8,1c-6.64,10.4-3.41,22.05-2,36c7.24-0.43,12.4-2.93,19-4c-0.63-9.47-3.03-14.3-1-21
	c-1.84-4.82-7.82-5.51-9-11c3.89-0.86,9.51-1.96,12,1c7.28,5.39,11.18,16.11,16,26c3,6.16,8.36,14.43,4,25
	c-10.46,4.04-22.41-1.34-32-5c-5.69-2.17-11.98-3.23-15-7c-7.94-0.39-12.62-4.05-18-7C58.22,426.71,50.81,394.31,68.62,401.5z
	 M109.62,447.5c3.67-0.33,6.85-1.14,9-3c-3.52-11.15-4.88-24.45-12-32C104.77,423.11,107.45,437.59,109.62,447.5z"/>
<path fill-rule="evenodd" fill="#FFFFFF" d="M446.62,420.5c-4.09,6.58-9.42,11.91-16,16c-5.63-4.37-10.71-9.29-17-13
	c4.22-8.45,10.24-15.09,18-20C437.64,408.15,441.8,414.65,446.62,420.5z"/>
<path fill-rule="evenodd" fill="#FFFFFF" d="M89.62,412.5c6.19,1.15,5.81,8.86,7,15c-1.18,1.15-3.53,1.13-6,1
	C88.91,424.52,85.34,416.39,89.62,412.5z"/>
<path fill-rule="evenodd" d="M106.62,412.5c7.12,7.55,8.48,20.85,12,32c-2.15,1.86-5.33,2.67-9,3
	C107.45,437.59,104.77,423.11,106.62,412.5z"/>
<path fill-rule="evenodd" fill="#FFFFFF" d="M948.62,472.5c-14.44,4.89-32.88,5.79-47,11c5.92,27.17,7.72,59.63,3,92
	c-18.39-1.08-31.36-2.35-48-4c1.01-6.05,0.57-8.11,1-16c11.46,4.02,24.62,13.09,38,9c0.47-26.46-0.32-52.5-5-78
	c-17.24,1.76-38.86,7.81-58,11c-2.92,2.56,1.3,7.05-1,9c-6.58-1.75-12.45-4.22-17-8c21.85-8.82,48.72-12.61,72-20
	c-0.67-16.52-7.41-26.13-9-38c2.79-3.41,7.97-5.44,12-7c13.48-5.23,28.12-9.8,42-16c0.67,0,1.33,0,2,0
	C938.17,436.29,946.74,451.05,948.62,472.5z"/>
<path fill-rule="evenodd" fill="#FFFFFF" d="M553.62,418.5c1.54,13.13,1.95,27.39,2,42c-2.29-7.29-3.45-19.07-5-24
	c-12.29,1.04-23,3.67-32,8c9.06,26.6,22.88,48.46,31,76c-17.32-27.35-35.58-53.75-52-82c2.78-5.1,9.65-6.56,15-9
	C523.57,424.5,536.96,419.62,553.62,418.5z"/>
<path fill-rule="evenodd" fill="#FFFFFF" d="M642.62,445.5c-2.03,4.97-6.04,7.96-9,12c-11.57-4.1-18.25-13.08-31-16
	c-8.51,3.82-7.06,17.61-12,25c-0.29-12.63,4.79-28.54,7-42C616.81,427.31,629.77,436.35,642.62,445.5z"/>
<path fill-rule="evenodd" fill="#FFFFFF" d="M524.62,532.5c-14.11-3.26-28.18-10.15-43-16c-14.26-5.63-29.01-11.5-43-17
	c-4.65,6.68-5.32,17.35-8,26c-6.91-0.09-11.64-2.36-18-3c1.31-11.35,5.4-19.93,8-30c-13.27-7.06-29.3-11.36-43-18
	c-7.52,9.82-11.15,23.51-13,39c-11.39-0.61-21.57-2.43-31-5c4.53-25.8,13.25-47.42,23-68C414.24,469.55,469.47,500.98,524.62,532.5z
	"/>
<path fill-rule="evenodd" fill="#FFFFFF" d="M799.62,495.5c-15.75,4.25-31.58,8.42-48,12c-1.85,2.15-0.67,7.33-1,11
	c-14.1,1.43-10.27-15.06-14-24c18.87-7.47,37.74-14.93,57-22C795.3,480.49,798.8,486.65,799.62,495.5z"/>
<path fill-rule="evenodd" fill="#FFFFFF" d="M639.62,484.5c-6.76,6.9-14.43,12.9-23,18c-1.92-2.41-4.7-3.97-7-6
	c4.7-8.97,12.03-15.3,18-23C632.39,476.4,637.15,479.3,639.62,484.5z"/>
<path fill-rule="evenodd" fill="#FFFFFF" d="M509.62,494.5c-0.89,0.44-1.79,0.88-2,2c-7.25-1.75-10.39-7.61-16-11
	C496.37,472.68,507.2,487.22,509.62,494.5z"/>
<path fill-rule="evenodd" fill="#FFFFFF" d="M167.62,492.5c0.85-0.18,0.94,0.39,1,1c7.29,59.18,33.21,106.22,68,141
	c-12.09,33.5-14.54,70.28-9,107c4.99,33.09,20.44,64.36,36,87c-1.53,2.68-4.38-1.44-5-2c-4.93-4.5-9.24-11.02-14-17
	c-40.32-50.72-76.59-126.79-83-210c-1.44-18.64-1.41-39.51,0-65C162.46,519.4,164.18,504.38,167.62,492.5z"/>
<path fill-rule="evenodd" fill="#FFFFFF" d="M745.62,536.5c-8.76,4.32-21.19-0.08-32,3c-10.96,41.12-2.94,85.72,40,91
	c4.88-5.45,6.14-14.52,9-22c8.42,0.25,14.35,2.98,21,5c-0.61,8.72-4.9,13.76-7,21c-4.62,0.62-5.75-2.25-10-2
	c-6.44,10.23-11.37,21.96-18,32c-12.88-7.79-26.79-14.54-39-23c2.09-8.25,7.71-12.96,10-21c-2.94-7.39-13.53-7.13-20-11
	c-8.34,15.99-18.78,29.89-30,43c11.84,13.01,24.73,24.75,38,37c4.19,3.87,9.69,7.38,12,13c-24.04,23.29-50.73,43.94-89,53
	c-7.55-21.45-15.47-42.53-24-63c-14.32,1.68-26.74,5.26-44,4c-2.02,6.58-2.02,12.87-1,16c4.42,3.91,13.75,0.34,16,2
	c2.95,16.05,3.99,34.01,6,51c-7.78,1.22-22.31,1.76-26,1c-3.02,11.2-1,32.82-4,47c10.66,4.12,24.76,3.69,36,3
	c27.13-1.67,53.25-8.91,75-17c3.35,6.31,8.01,11.33,9,20c-38.53,13.52-78.26,21.75-128,18c0.04-20.99,4.08-46.57,6-69
	c0.12-3.78-5.85-1.49-6-5c7.04-63.96,15.23-126.77,24-189c11.37,21.96,23.35,43.32,33,67c-9.92,4.72-20.82,2.42-31,7
	c0.64,11.12,3.14,22.11,3,35c15.98,1.93,32.27-4.36,45-9c1.19,3.14,3.38,5.29,4,9c0.02,4.68-6.63,2.7-8,6c0.86,5.8,3.67,9.66,5,15
	c5.99,0.99,6.57-3.43,12-3c1.48,4.19,4.62,6.71,5,12c-2.63,2.03-7.37,1.97-10,4c1.02,9.98,6.2,15.8,8,25
	c16.97-1.96,29.26-11.71,42-19c8.33-4.77,16.47-10.04,23-17c-3.46-9.54-11.29-14.71-17-22c-5.18-0.18-5.33,4.67-10,5
	c-1.48-3.52-3.94-6.06-6-9c0.88-3.45,4.06-4.61,6-7c-2.43-2.83-6.9-12.79-10-13c-3.18-0.22-3,5.67-6,4c-3.24-1.43-5.1-4.23-6-8
	c9.26-10.4,20.63-18.71,27-32c-1.92-6.08-11-5-14-10c9.64-19.29,18.42-39.19,19-65c10.4-4.26,18.29-11.04,25-19
	c1.33-5.33-5.33-2.67-4-8c2.06-0.27,0.24-4.43,3-4c0.89-0.61,1.79-1.21,2,0C720.76,525.36,732.47,531.65,745.62,536.5z"/>
<path fill-rule="evenodd" fill="#FFFFFF" d="M803.62,523.5c1,0,2,0,3,0c3.99,5.35,12.96,5.71,15,13c-6.27-0.6-10.58,0.76-16,1
	C804.17,533.61,803.33,529.13,803.62,523.5z"/>
<path fill-rule="evenodd" fill="#FFFFFF" d="M661.62,525.5c-0.45,4.9-10.5,7.48-16,9c-4.06,1.12-9.18,1.13-13,2
	C641.96,532.5,649.78,526.99,661.62,525.5z"/>
<path fill-rule="evenodd" d="M1074.62,537.5c2.05,3.29,0.54,10.13,1,15c-11.35,7.65-25.35,12.65-38,19c7.45,3.23,16.07,3.57,25,4
	c3.84,0.18,8.36-0.13,13,0c0.27,6.69,1.09,6.94,0,12c-22.57-0.77-41.22-5.44-65-5c-1.39-3.17-1.39-8.83,0-12
	c15.06-5.61,28.88-12.45,43-19c-7.38-4.44-16.14-1.72-24-2c-4.43-0.16-9.3-2.18-17,0c-0.7-2.58-1.84-7.14,0-11c0.67,0,1.33,0,2,0
	C1026.79,537.57,1054.03,537.7,1074.62,537.5z"/>
<path fill-rule="evenodd" fill="#FFFFFF" d="M789.62,551.5c0.12,5.79,0.32,11.65-2,15c-6.94,0.13-12.53-0.05-16-1
	c-0.3-5.18-1.34-13.85,2-18C777.45,546.66,784.62,550.27,789.62,551.5z"/>
<path fill-rule="evenodd" fill="#FFFFFF" d="M502.62,550.5c-8.14,3.2-19.8,2.87-30,4c0-1.67,0-3.33,0-5
	C483.35,548.29,492.76,548.04,502.62,550.5z"/>
<path fill-rule="evenodd" d="M98.62,549.5c1.92,2.42,0.63,8.04,1,12c-21.96,1.04-43.57,2.43-65,4c0.58-5.25-1.76-7.57-1-13
	C52.39,550.51,79.08,551.26,98.62,549.5z"/>
<path fill-rule="evenodd" fill="#FFFFFF" d="M614.62,579.5c-13.5-3.16-19.58-13.76-31-19c0-1,0-2,0-3
	C597.24,557.6,612.82,564.26,614.62,579.5z"/>
<path fill-rule="evenodd" fill="#FFFFFF" d="M428.62,561.5c1.51,8.15,1.86,17.47,5,24c20.85-4.15,39.65-10.35,61-14
	c-41.6,17.73-85.03,33.64-129,49c-2.02-6.32-4.75-11.92-5-20c-7.87-2.37-14.99,3.32-24,3c-2.73-8.13-4.64-20.75-5-34
	c8.67-1.66,18.52-2.15,29-2c2.97,15.03,4.77,31.23,10,44c15.16-3.84,28.87-9.13,44-13c-1.58-12.08-6.54-20.8-6-35
	C416.26,562.01,422.07,562.29,428.62,561.5z"/>
<path fill-rule="evenodd" fill="#FFFFFF" d="M957.62,569.5c2.1,17.45-1.65,44.69-7,70c-1.82,8.59-2.09,17.39-4,25
	c-1.96,7.83-6.45,16.04-9,24c-2.73,8.51-4.9,16.13-8,24c-11.96,30.4-26.58,58.6-45,83c-7.96,10.54-14.54,22.14-25,31
	c0.5-0.42-2.61,5.42-3,1c19.35-30.5,32.34-79.71,26-126c-0.97-7.07-3.58-13.9-4-21c4.22-4.07,8.73-7.41,13-11
	c12.75-10.73,23.18-22.94,34-37C939.33,614.68,950.54,593.71,957.62,569.5z"/>
<path fill-rule="evenodd" d="M99.62,570.5c1.85,2.15,0.67,7.33,1,11c-12.56,8.78-26.68,15.99-37,27c10.08,2.61,28.63-4.91,40-4
	c-0.25,3.9,3.8,10.76-3,10c1.22,1.44,3.82,1.52,5,3c1.52,14.48,5.98,26.03,8,40c-2.36,1.97-6.69,1.97-10,3
	c-2.59-3.74-3.11-9.56-4-15c-20.01,1.33-34.23,8.44-53,11c-1.38-3.28-2.36-6.98-2-12c17.11-4.22,36.12-6.54,52-12
	c-0.16-5.92-4.86-13.8,1-17c-20.13,1.54-38.37,4.96-56,9c-3.93-3.62-2.12-7.15-3-13c12.13-8.87,25.46-16.54,36-27
	c-3.95-3.3-12,0.41-19,1c-6.21,0.52-13.62,0.53-20,1c-0.54-3.37-1.68-6.35,0-11C59.81,572.51,75.33,573.22,99.62,570.5z"/>
<path fill-rule="evenodd" d="M1026.62,589.5c26.99-5.32,47.98,5.41,46,31c-0.87,11.19-10.87,22.17-21,24
	c-18.43,3.33-43.01-8.42-46-22C1002.48,608.23,1009.75,593.88,1026.62,589.5z M1052.62,602.5c-11.57-6.18-31.65-4.02-35,8
	c-4.92,17.67,13.79,23.23,33,22C1066.32,625.69,1062.17,607.6,1052.62,602.5z"/>
<path fill-rule="evenodd" fill="#FFFFFF" d="M643.62,610.5c-2.95,6.39-8.82,9.85-14,14c-9.48-7.85-15.73-18.94-22-30
	c0.93-0.73,1.51-1.82,2-3C623.08,595.71,633.1,603.35,643.62,610.5z"/>
<path fill-rule="evenodd" fill="#FFFFFF" d="M1050.62,632.5c-19.21,1.23-37.92-4.33-33-22c3.35-12.02,23.43-14.18,35-8
	C1062.17,607.6,1066.32,625.69,1050.62,632.5z"/>
<path fill-rule="evenodd" fill="#FFFFFF" d="M875.62,638.5c-1.53,12.47-3.84,24.16-11,31c-10.07-2.26-18.07-6.59-27-10
	c2.19-10.15,6.64-18.03,9-28C857.57,632.55,865.63,636.49,875.62,638.5z"/>
<path fill-rule="evenodd" d="M1005.62,657.5c1.63-1.7-5.1-3.51-8-4c-0.03-4.37,0.87-7.8,2-11c23.45,5.28,41.77,9.56,65,15
	c0.05,4.71-1.76,7.58-2,12c-19.25-3.08-34.89-9.77-54-13c-1.73,5.27-3.06,10.94-5,16c14.73,8.93,37.55,9.79,53,18
	c-0.31,4.69-3.02,6.98-3,12c-19.39-3.61-33.71-12.29-53-16c-2.2,4.14-4.38,8.28-5,14c-5.2-0.13-8.78-1.89-12-4
	c3.5-10.94,8.85-27.5,13-41C1000.35,655.44,1002.95,656.51,1005.62,657.5z"/>
<path fill-rule="evenodd" d="M114.62,660.5c2.63,14.04,9.14,24.19,11,39c-3.21,1.12-5.93,2.74-10,3c-3.94-8.06-5.8-18.2-9-27
	c-22.85-3.83-6.96,17.89-5,31c-3.53,1.14-6.23,3.1-11,3c-3.37-8.96-5.36-19.31-9-28c-4.03,2.63-11.44,1.89-15,5
	c1.08,12.92,6.27,21.73,9,33c-2.97,1.7-5.82,3.51-10,4c-5.58-14.42-10.54-29.46-14-46C73.27,672.48,92.67,665.21,114.62,660.5z"/>
<path fill-rule="evenodd" fill="#FFFFFF" d="M827.62,676.5c-16.26,38.07-40.81,67.85-70,93c-5.52-4.48-10.21-9.79-14-16
	c25.21-24.46,48.45-50.89,64-85C816.25,669.2,820.54,674.25,827.62,676.5z"/>
<path fill-rule="evenodd" fill="#FFFFFF" d="M873.62,693.5c11.21,17.57-0.71,32.61-10,47c-5.87,9.09-11.18,17.5-17,25
	c-13.61,17.54-29.35,31.51-41,44c4.33,8.18,10.97,14.36,17,21c5.82,6.41,15.1,10.92,17,21c-6.13,6.44-10.54-1.25-14-5
	c-11-11.94-24.86-26.73-35-39C822.82,774.03,853.47,739.01,873.62,693.5z"/>
<path fill-rule="evenodd" d="M128.62,705.5c3.19,13.04,13.62,23.4,10,40c-7.23,8.35-23.89,13.77-32,3c-4.88,10.12-10.6,19.4-16,29
	c20.44-7.89,37.19-19.48,57-28c9.71,8.97-1.81,16.99-8,27c-2.21,3.58-3.05,7.92-5,11c-2.25,3.56-6.39,5.2-6,9
	c11.33-2.67,22.47-14.19,35-19c12.4,9.9-13.16,20.34-21,25c-10.6,6.3-20.2,12.07-25,17c12.37,0.72,31.89-6.86,46-11
	c11.98-3.52,20.18-7.2,23,6c-14.04,16.96-25.02,36.98-37,56c-3.97-2.03-5.55-6.45-8-10c1.21-5.12,5.54-7.12,7-12
	c-3.35-7.99-8.32-14.35-14-20c-5.34,0-8.24,2.42-13,3c-6.41-5.59-11.25-12.75-15-21c6.25-13.75,15.5-24.5,22-38
	c-12.48,0.58-21.16,13.46-35,16c-3.18-8.15-7.37-15.3-11-23c5.71-11.61,20.88-21.74,15-36c-9.15,2.18-15.97,6.7-25,9
	c-3.24-1.76-4.11-5.89-5-10C88.07,720.94,106.64,711.52,128.62,705.5z M107.62,726.5c2.1,4.55,3.92,17.1,11,18
	c13.25,1.68,10.38-18.17,2-25C118.26,719.83,108.86,721.72,107.62,726.5z M147.62,824.5c1.18,6.16,4.72,9.94,9,13
	c4.02-6.32,9.78-10.88,12-19C160.47,819.35,154.9,822.77,147.62,824.5z"/>
<path fill-rule="evenodd" d="M1048.62,716.5c-1.35,4.32-3.29,8.05-5,12c-7.07,0.22-11.79-0.1-16,1c-4.21,5.45-5.46,13.88-9,20
	c2.29,5.38,8.17,7.17,11,12c-1.17,3.83-2.38,7.62-5,10c-4.04-1.45-7.2-5.14-10-8c-2.88-2.93-6.29-6.07-8-10
	c-12.42-7.91-21.39-19.28-33-28c0.78-3.89,1.15-8.19,4-10C997.06,714.79,1022.32,717.43,1048.62,716.5z M999.62,734.5
	c2.88,2.46,5.91,5.9,10,7c1.41-4.92,4.23-8.44,6-13c-5.99-3.01-15.5-2.5-24-3C992.47,729.76,996.77,732.07,999.62,734.5z"/>
<path fill-rule="evenodd" fill="#FFFFFF" d="M120.62,719.5c8.38,6.83,11.25,26.68-2,25c-7.08-0.9-8.9-13.45-11-18
	C108.86,721.72,118.26,719.83,120.62,719.5z"/>
<path fill-rule="evenodd" fill="#FFFFFF" d="M991.62,725.5c8.5,0.5,18.01-0.01,24,3c-1.77,4.56-4.59,8.08-6,13
	c-4.09-1.1-7.12-4.54-10-7C996.77,732.07,992.47,729.76,991.62,725.5z"/>
<path fill-rule="evenodd" d="M1022.62,775.5c-2.06,2.01-1.87,10.93-6,12c-1.56,0.4-19.08-10.52-22-12c-4.97-2.51-11.63-5.52-17-9
	c-4.71-3.06-13.91-7.29-19-10c0.06-4.6,2.84-6.49,4-10C983.62,755.17,1002.08,766.37,1022.62,775.5z"/>
<path fill-rule="evenodd" d="M972.62,767.5c1.95,3.73-1.89,5.56-1,11c-11.77-1.56-22.6,5.99-16,19c3.47,6.84,19.2,16.31,26,16
	c13.49-0.62,15.45-16.17,7-25c1.6-3.4,4.85-5.15,8-7c4.98,3.18,9.01,7.84,10,13c4.45,23.23-23.22,38.49-43,26
	c6.49,8.66,16.95,21.66,8,36c-3.28,5.26-12.01,12.75-16,14c-21.69,6.79-49.55-19.12-45-40c2.68-12.29,22.58-27.21,42-16
	c-0.28-5.76-6.64-7.64-9-13C935.58,783.19,950.05,761.36,972.62,767.5z M938.62,821.5c-8.82-0.57-16.34,4.39-17,13
	c-1.67,21.61,42.15,40.06,41,4C957.52,833.34,949.05,822.17,938.62,821.5z"/>
<path fill-rule="evenodd" fill="#FFFFFF" d="M426.62,807.5c33.82,16.99,66.09,29.34,112,34c-0.17,7.71,0.56,12.36-2,16
	c-42.78-3.59-84.18-17.12-116-35C420.01,814.88,424.2,812.07,426.62,807.5z"/>
<path fill-rule="evenodd" fill="#FFFFFF" d="M404.62,822.5c-12.66,27.01-26.78,52.56-42,77c-8.95-1.71-16.12-5.22-22-10
	c15.04-26.96,33-51,50-76C396.31,815.48,400.81,818.64,404.62,822.5z"/>
<path fill-rule="evenodd" fill="#FFFFFF" d="M168.62,818.5c-2.22,8.12-7.98,12.68-12,19c-4.28-3.06-7.82-6.84-9-13
	C154.9,822.77,160.47,819.35,168.62,818.5z"/>
<path fill-rule="evenodd" fill="#FFFFFF" d="M962.62,838.5c1.15,36.06-42.67,17.61-41-4c0.66-8.61,8.18-13.57,17-13
	C949.05,822.17,957.52,833.34,962.62,838.5z"/>
<path fill-rule="evenodd" d="M224.62,856.5c-0.51,4.49-5.46,4.54-7,8c-5.24-1.1-5.57-7.09-10-9c-15.5,9.83-26.52,24.15-41,35
	c-4.04-1.29-5.17-5.5-8-8c10.91-14.42,27.34-23.33,40-36c-1.68-5.32-7.09-6.91-9-12c2.28-3.05,4.16-6.51,9-7
	C206.79,837.67,215.7,847.09,224.62,856.5z"/>
<path fill-rule="evenodd" d="M904.62,896.5c8.4,6.93,23.56-0.32,23-10c-0.17-2.83-2.74-6.28-5-7c-7.64-2.44-19.79,11.66-32,10
	c-22.88-3.12-15.71-35.62,2-39c4.93-0.94,12.84-0.21,18,4c1.28,5.95-4.72,4.62-5,9c-8.5-4.55-16.39,0.05-19,7
	c1.08,2.92,2.09,5.91,5,7c10.11-1.05,18.86-12.32,31-11c6.21,0.68,15.34,6.79,17,13c5.15,19.27-21.61,42.91-41,27
	C896.5,902.58,902.96,899.84,904.62,896.5z"/>
<path fill-rule="evenodd" d="M234.62,866.5c-14.09,16.91-30.18,31.82-45,48c-4.37-1.29-6.29-5.05-9-8c14.4-16.6,29.95-32.05,47-46
	C230.53,861.92,232.42,864.36,234.62,866.5z"/>
<path fill-rule="evenodd" fill="#FFFFFF" d="M723.62,926.5c-7.8,2.59-8.73-4.33-11-9c-5.91-12.16-10.57-28.69-18-40
	c-39.14,12.57-79.8,23.51-129,23c-5.17-4.16-12.24-6.43-14-14c55.89,1.5,101.78-7.58,142-24c0.81,0.19,1,1,2,1
	C704.87,884.58,716.35,903.44,723.62,926.5z"/>
<path fill-rule="evenodd" d="M860.62,937.5c-1.44-2.95,3.59-6.71,7-8c3.76-1.14,4.67,2.84,9,3c7.68,0.29,13.22-5.12,15-12
	c-1.24-3.09-3.3-5.37-6-7c-11.77,6.78-44.68,15.98-45-10c-0.17-13.9,18.54-26.67,32-19c7.8,4.44,5.25,6.08-2,12
	c-4.22-0.68-6.25-3.53-11-2c-5.78,1.86-10.78,12.12-3,15c13.72-2.47,19.39-10.16,31-8c27.23,5.07,15.5,44.67-11,44
	C869.82,945.33,865.13,941.97,860.62,937.5z"/>
<path fill-rule="evenodd" d="M263.62,892.5c14.13,24.96-10.2,60.03-38,53c-8.59-2.17-21.53-14.11-20-29
	c1.23-11.99,17.14-31.91,32-34C248.19,881.01,254.77,885.86,263.62,892.5z M217.62,922.5c6.21,24.13,37.33,5.84,39-12
	c0.98-10.48-7.29-16.95-16-16C228.94,895.77,214.83,911.66,217.62,922.5z"/>
<path fill-rule="evenodd" fill="#FFFFFF" d="M688.62,938.5c-67.99,26.9-162.18,28.97-237,8c-35.36-9.91-67.07-24.57-94-38
	c12.92-0.59,26.15,5.43,41,7c20.93,2.21,44.96,3.45,67,1c28.14-3.13,54.69-14.85,75-24c18.72,11.98,40.25,27.33,65,36
	C631.54,937.57,661.31,939.67,688.62,938.5z"/>
<path fill-rule="evenodd" fill="#FFFFFF" d="M240.62,894.5c8.71-0.95,16.98,5.52,16,16c-1.67,17.84-32.79,36.13-39,12
	C214.83,911.66,228.94,895.77,240.62,894.5z"/>
<path fill-rule="evenodd" d="M289.62,912.5c-0.83,16.25-3.25,26.58-4,44c7.64-6.03,13.98-22.01,22-31c5.04-0.71,4.98,3.69,9,4
	c-8.89,19.11-21.51,34.49-31,53c11.25-6.08,25.97-20.27,38-31c7.26-6.48,12.78-14.8,22-5c-2.98,21.24-6.25,38.33-7,64
	c9.37-17.63,16.98-37.02,26-55c3.81,1.19,7.34,2.66,11,4c-4.99,18.34-15.69,30.98-20,50c7.63,4.7,17.6,7.06,26,11
	c1.79,3.3-1.3,8.99-4,11c-18.82-5.85-35-14.33-52-22c-1.45-3.95,1.18-9.33,1-15c-4.9-5.44-14.02-6.65-19-12
	c-5.99,2.34-8.37,8.3-15,10c-6.19-5.14-15.05-7.62-21-13c0.03-15.31,1.77-28.89,3-43c-8.76,8.25-14.69,19.31-22,29
	c-5.71,0.37-7.71-2.95-11-5c11.53-19.13,26.35-34.98,38-54C284.52,906.93,286.23,910.56,289.62,912.5z M316.62,974.5
	c3.66,2.33,6.1,5.9,11,7c0.94-6.13,6.66-16.79,2-22C326.37,965.58,318.87,967.41,316.62,974.5z"/>
<path fill-rule="evenodd" d="M874.62,951.5c-4.15,11.67-16.15,6.77-23,1c-8,2.67-13.22,8.12-20,12c1.67,4.33,2.17,9.83,4,14
	c-2.72,3.61-7.27,5.39-12,7c-3.25-12.29-7.6-34.41-12-49c-3.5-11.63-7.08-19.87,5-23C836.52,925.6,853.49,940.63,874.62,951.5z
	 M828.62,952.5c4.09-2.58,9.22-4.11,12-8c-6.23-4.1-11.16-9.51-18-13C823.92,939.2,826.04,946.08,828.62,952.5z"/>
<path fill-rule="evenodd" fill="#FFFFFF" d="M822.62,931.5c6.84,3.49,11.77,8.9,18,13c-2.78,3.89-7.91,5.42-12,8
	C826.04,946.08,823.92,939.2,822.62,931.5z"/>
<path fill-rule="evenodd" d="M772.62,940.5c3.63,3.64,6.46,8.45,9,13c7.4,13.25,15.08,28.53,23,43c-1.22,4.78-7.92,4.08-11,7
	c-13.66-7.34-24.42-17.58-38-25c3.61,13.72,12.83,21.84,15,37c-4.06,0.94-6.25,3.75-11,4c-8.56-20.44-17.44-40.56-26-61
	c15.13-12.86,32.33,18.2,47,21c-4.5-12.16-11.46-21.87-17-33C764.78,942.66,768.23,941.1,772.62,940.5z"/>
<path fill-rule="evenodd" fill="#FFFFFF" d="M329.62,959.5c4.66,5.21-1.06,15.87-2,22c-4.9-1.1-7.34-4.67-11-7
	C318.87,967.41,326.37,965.58,329.62,959.5z"/>
<path fill-rule="evenodd" d="M687.62,976.5c1.33-4.01,7.13-3.54,11-5c2.45,5.55,5.36,15.54,9,26c4.71,13.54,5.45,29.17,24,21
	c5.9-20.1-9.78-34.5-13-52c1.11-4.23,5.65-5.02,10-6c4.71,8.02,7.27,16.76,11,26c4.17,10.33,13.38,27.5,4,38
	c-2.83,3.16-14.37,8.67-21,9c-23.99,1.21-24.88-26.72-31-45C689.98,983.59,686.89,980.37,687.62,976.5z"/>
<path fill-rule="evenodd" d="M415.62,974.5c5.24-0.24,7.57,2.43,12,3c-0.47,10.71-4.25,28.89-3,41c6.1-11.89,12.66-23.34,18-36
	c6.23-0.23,10.37,1.63,15,3c0,13.67,0,27.33,0,41c8.15-10.52,9.79-27.54,17-39c5.66,2.34,13.96,2.04,20,4
	c-3.11,19.23-5.62,47.28-9,66c-4.9,0.23-7.57-1.76-13-1c2.04-16.74,4.18-29.73,7-47c-7.57,13.09-12.37,28.96-18,44
	c-5.92,0.25-9.8-1.53-15-2c0.17-18.62-0.38-32.05-1-46c-9.65,11.01-13.03,28.3-22,40c-5.43-0.57-10.5-1.5-14-4
	C411.8,1019.1,412.2,999.15,415.62,974.5z"/>
<path fill-rule="evenodd" d="M687.62,993.5c-1.04,3.96-6.3,3.7-9,6c-4.3-0.92-3.64-6.16-9-7c-5.07-0.79-11.09,2.16-12,8
	c6.17,9,23.68,2.88,32,8c6.14,3.78,9.13,13.4,9,19c-0.55,23.87-46.07,30.68-49,2c4.13-0.87,8.2-1.8,12-3c2.78,3.97,2.73,7.69,8,9
	c6.65,1.65,16.23-2.99,16-9c-0.43-11.12-26.35-5.38-34-12c-4.68-4.05-9.06-14.6-4-24C653.86,978.92,685.84,974.63,687.62,993.5z"/>
<path fill-rule="evenodd" d="M644.62,997.5c-4.81,1.19-9.59,2.41-15,3c-0.68,19.26,5.92,33.82,7,55c-3.98,1.02-8.54,1.46-13,2
	c-2.62-18.38-4.79-37.21-8-55c-5.2,0.47-9.08,2.25-15,2c-1.92-2.42-0.63-8.04-1-12c13.36-1.87,28.34-3.09,42-7
	C643.3,988.82,643.43,993.69,644.62,997.5z"/>
<path fill-rule="evenodd" d="M512.62,992.5c6.56,14.11,12.02,29.31,19,43c2.78-11.3,0.92-29.01,3-41c3.58-1.97,5.34,0.46,10,0
	c1.44,15.64-1.69,45.62,0,67c-6.09,0.14-8.47,1.35-14,0c-6.69-13.31-13.37-26.63-19-41c-4.11,10.56-2.44,26.89-5,39
	c-4.52,1.26-6.76,0.55-12-1c-0.37-13.87,4.57-35.3,6-55c0.32-4.4-1.15-9.38,2-12C506.62,991.17,508.17,993.28,512.62,992.5z"/>
<path fill-rule="evenodd" d="M600.62,1012.5c-3.31,1.03-7.64,1.03-10,3c-5.53-3.55-6.33-9.47-13-10c-4.86-0.39-12.54,3.55-15,9
	c-3.16,7-2.25,24.12,2,30c6.15,8.51,19.27,7.09,27-2c-0.84-1.16-1.32-2.68-1-5c-3.01-3.21-10.94,1.11-13-1c-1.77-1.89-0.73-6.6-1-10
	c8.37-2.21,13.53-1.98,26-3c1.58,9.29,2.25,18.23,3,26c-8.92,9.15-28.61,16.21-42,10c-12.17-5.65-19.97-30.34-13-47
	c0.51-1.23,2.63-1.74,4-4c2.11-3.48,2.83-8.45,7-11C575.42,989.05,599.84,995.26,600.62,1012.5z"/>
<path fill-rule="evenodd" fill="#FFFFFF" d="M483.62,625.5c-13.63,17.08-29.96,34.67-46,52c-16.07,17.37-32.05,35.41-49,51
	c-9.74-8.93-17-20.33-26-30c-12.92,7.36-24.48,18.77-38,29c-3.16,2.39-12.76,6.95-13,9c-0.11,0.9,7.24,10.04,8,11
	c8.1,10.19,17.82,18.94,26,28c-17.86,20.23-35.81,42.59-56,62c-2.18,2.09-4.32,7.89-9,5c-0.71-7.31,6.5-11.4,11-16
	c13.47-13.78,27.84-30.04,42-44c-10.3-13.03-21.97-24.7-32-38c-20.07,11.93-34.68,29.32-56,40c-2.42-4.48,3.67-6.02,6-8
	c18.78-15.92,44.45-30.34,63-48c-19.5-31.84-35.7-66.97-47-107c-6.85,1.81-13.39,3.94-21,5c-4.76-11.18-6.71-28.19-8-45
	c-1.14-14.85,3.75-29.74,3-40c-0.57-7.82-3.55-16.17-7-23c-2.69-5.33-11.08-13.49-11-18c0.11-5.93,13-16.63,17-22
	c9.82-13.19,14.9-22.15,23-35c12.42,2.58,22.04,7.96,33,12c-12.02,37.86-19.11,80.96-14,127c5.78,52.03,26.84,98.55,49,132
	c10.99-3.88,20.66-11.98,30-19c9.01-6.78,17.89-14.08,27-21c-1.43-7.24-7.11-10.22-9-17c34.79-19.21,69.51-38.49,106-56
	c-28.02,21.65-57.82,41.52-86,63c0.36,3.58,3.93,8.2,7,12c2.98,3.69,6.9,7.33,10,10C440.56,667.77,460.79,645.34,483.62,625.5z"/>
<path fill-rule="evenodd" fill="#FFFFFF" d="M510.62,627.5c-1.93,8.25-6.77,16.35-11,24c-12.57,22.75-26.23,47.66-40,70
	c4.56,8.44,16.15,9.85,24,15c4.75-2.34,6.11-8.64,8-13c13.8-31.81,26.88-68.73,41-101c-0.16,11.3-6.26,21.47-10,32
	c-11.3,31.82-20.54,65.18-32,97c-15.21-2.12-23.39-11.28-36-16c-7.75,8.25-11.29,20.71-18,30c-5.94-0.06-7.41-4.59-11-7
	C453,713.88,482.63,671.5,510.62,627.5z"/>
<path fill-rule="evenodd" fill="#FFFFFF" d="M932.62,164.5c53.34,52.01,95.99,106.38,125,179c11.39,28.52,23.26,57.9,31,91
	c15.43,65.99,17.2,143.04,6,215c-1.25,8.06-4.2,15.71-6,24c-1.87,8.62-2.07,17.88-4,26c-3.63,15.27-9.57,31.18-15,46
	c-10.85,29.63-23.64,57.06-38,83c-21.04,38.01-48.68,72.23-78,104c-19.17,20.77-41.23,38.98-64,57c-22.44,17.76-47.82,33.7-74,48
	c-63.53,34.7-150.76,61.32-230,66c-51.47,3.04-103.72-1.64-152-13c-16.65-3.92-32.07-8.36-48-13c-46.12-13.44-84.55-33.82-124-58
	c-12.41-7.6-24.21-16.69-36-25c-46.06-32.46-87.41-74.68-120-123c-4.02-5.96-7.79-12.01-12-18c-8.52-12.12-14.53-24.36-22-39
	c-9.54-18.7-19.98-40.34-28-63c-32.49-91.82-43.35-191.04-23-296c3.39-17.5,6.51-34.06,11-50c11.03-39.11,25.97-75.12,43-109
	c1.74-3.46,3.06-6.65,5-10c14.27-24.61,31.6-49.08,49-72c1.33-1.75,1.69-3.54,3-5c9.68-10.73,20.89-24.95,32-36
	c9.84-9.78,20.91-18.27,32-28c44.09-38.67,93.18-69.51,150-93c29.95-12.38,59.5-21.27,92-29c24.59-5.85,49.39-8.74,78-11
	c64.08-5.07,137.77,3.85,200,23C801.72,61.99,875.2,109.35,932.62,164.5z M433.62,37.5c-5.16,2.75-4.04,12.52,1,18
	c6.76-1.24,19.24,3.24,20-4C447.58,48.55,442.25,32.9,433.62,37.5z M670.62,37.5c-3.36,5.3-2.34,14.99-7,19
	c-6.68-1.66-15.86-0.81-23-2c-2.24,2.74,0.15,7.26,1,10c6.82-0.29,14.81-2.38,19,2c-2.15,10.87-13.03,2.01-22,6
	c-0.33,3.66,1.11,5.56,2,8c2,2.21,9.95-4.35,12,1c-4.37,10.98-27.09,0.18-36,8c1.91,12.16,15.96,1.68,23,7
	c-9.23,6.14-18.94,13.39-29,19c-4.34,2.42-10.88,2.6-13,8c10.01,1.34,14.92-2.42,24-2c5.92-4.74,8.81-12.53,18-14
	c-4.4,12.95-4.73,19.89-5,32c6.03,0.03,10.29-1.71,17-1c7.54,3.46,9.63,12.37,18,15c5.58-12.08,5.71-29.63,14-39
	c6.73,5.94,13.36,11.98,12,26c10.78,2.89,19.29,8.04,32,9c-12.27-14.07-27.24-27.81-38-42c-2.22-2.93-6.58-5.67-5-10
	c10.69-1.68,14.55,7.65,23,5c3.25-20.69-32.92-10.34-46-18c5.32-6.33,15.41-2.02,23-2c3.86,0.01,8.17-1.86,12-1
	c0.32-2.35,1.58-3.75,1-7c-8.8-2.27-20.72,1.34-29-3c3.92-10.95,22.61-1.37,34-4c0.32-2.35,1.58-3.75,1-7c-7.2-2.27-12.11-0.63-19-3
	c-2.49,1.94-7.22,2.85-8-1c0.15-6.85,5.85-8.15,6-15C678.65,40.13,676.6,36.85,670.62,37.5z M384.62,62.5
	c-8.32,4.66-7.17,16.93,2,19c4.8,1.08,12.94-1.59,16-6C396.52,71.26,391.46,65.99,384.62,62.5z M454.62,91.5
	c-5.38-4.73-1.43-17.2-2-22c-13.89-0.72-30.07,3.57-37,13c2.53,1.47,4.47,3.53,8,4c4.08-1.58,4.32-7.01,10-7
	c10.52,14.88,14.79,37.68,18,57c-9.16,3.24-16.14-3.23-23,1c11.99,2.73,25.39,9.21,36,10c-1.26-15.08-8.37-29.63-7-44
	c6.48,2.09,14.03,7.25,20,13c3.06,2.95,2.71,5.87,7,7c2.84,0.75,6.03-0.74,10-1c5.63-0.36,14.93,1.89,17-2c-2.74-3.89-8.63-5.7-14-8
	c-5.48-2.35-10.55-5.32-16-8c-1.08-0.53-2.89,0.47-4,0c-6.23-2.66-12.28-6.79-17-10c6.72-7.28,13.66-14.34,20-22
	C467.05,58.22,466.65,88.89,454.62,91.5z M403.62,81.5c-10.73,8.64-26.72,12.42-36,22c3.24,8.66,8.88,4.06,15,0
	c9.02-5.97,25.16-12.51,25-22C406.29,81.5,404.96,81.5,403.62,81.5z M412.62,104.5c3.43,7.04,9.46-1.11,15-1
	c1.9,10.67-4.19,21.74-11,27c-2.51-3.24,1.33-6.82,1-11c-15.32-3.14-26.17,6.37-34,14c5.25,6.08,11.28,11.39,18,16
	c4.54-3.13,8.53-6.8,15-8c-0.26-8.7,11.07-10.59,16-17c-0.84-12.72,7.89-20.48,6-31C426.48,93.69,418.48,98.03,412.62,104.5z
	 M384.62,106.5c-0.49,4.16,1.19,6.15,4,7c2.65-9.02,16.99-6.34,19-16C398.93,95.61,392.66,104.44,384.62,106.5z M386.62,118.5
	c-0.22,1.89,1.13,2.21,1,4c4.18-0.23,8.63-3.86,12-6c3.15-2.01,10.05-3.76,9-10C399.04,108.25,392.17,112.71,386.62,118.5z
	 M227.62,142.5c-7.18,1.73-15.83,12.41-17,18c1.18,0.48,2.27,1.07,3,2c6.79,0.79,4.65-7.35,10-8c5.67,2.19,2.52,13.89,0,17
	c-2.95,0.44-8.12,3.82-10,2c-2.7-2.82,1.77-4.1,1-8c-8.89-3.49-11.49,4.15-17,6c0.39-0.13-1.85-2.06-3-2c-2.76,0.14-5.03,3.8-8,3
	c3.4,12.98,6.49,31.46,6,45c-3.9-1.19-6.89-1.48-9-4c-5.43-6.5-0.99-18.02-1-24c-5.29-2.92-9.59,2.8-14,4
	c-3.28,10.39-8.13,19.2-13,28c16.05,11.82,31.77,25.3,46,38c5.18,4.62,10.92,8.27,15,13c2.7,3.13,3.73,7.39,7,10
	c3.35-1.65,7.04-2.96,8-7c-12.08-12.92-27.94-22.06-40-35c3.2-3.67,13.24-5.16,19-3c-0.89,5.82-0.46,9.54,0,14
	c4.76-4.73,4.06-13.15,5-20c0.88-6.39,0.72-13.82,4-19c3.16-0.49,3.53,1.8,7,1c6.07-6.26,11.66-13,14-23c-1.9-2.1-2.72-5.28-7-5
	c-6.19,4.48-10.14,16.52-16,18c-1.16-6.01-2.78-15.18-2-20c11.66,1.04,20.21-5.63,31-3c4.51,1.1,8.66,6.96,13,7
	c2.67,0.03,9.86-4.35,12-6c5.47-4.22,10.91-11.34,15-16c-16.42,2.21-33.44,8.16-49,8c-8.08-9.81,2.77-21.11,5-30
	C237.5,142.42,231.92,141.47,227.62,142.5z M831.62,157.5c-2.39,3.97-1.95,5.45,0,10c7.63,0.37,14.92,1.08,18,6
	c-7.52,2.48-14.21,5.79-23,7c-1.73,0.61,0.08,4.74-2,5c-8.35,3.65-16.78,7.22-24,12c2.22,3.78,3.7,8.3,8,10
	c5.45-8.55,11.46-16.54,21-21c8.43,1.24,15.92,3.42,22,7c3.71-1.29,3.22-6.78,8-7c1,1.34,2.7,1.96,3,4c0.05,3.71-4.9,2.44-5,6
	c2.45,2.89,7.82,2.85,10,6c-2.58,3.09-4.99,6.34-6,11c13.92,6.08,22.42,17.58,34,26c1.38-0.04,2.2,0.47,3,1
	c10.23-11.1,24.45-18.21,37-27c-3.99-12.46-18.88-22.37-30-31c4.86-4.95,15.35,0.98,21-2c-0.13-4.53-2.45-6.89-3-11
	c-13.76,2.21-27.06,5.75-40,5c-3.06-1.27-2.94-5.73-6-7c-7.67,3.89-20.34,3.77-24-4c7.01-3.33,16-4.67,25-6
	c1.48-2.21-0.98-7.17-2-10C859.4,148.14,849.19,160.47,831.62,157.5z M498.62,154.5c-73.71,9.71-140.02,41.73-188,79
	c-15.6,12.12-29.05,23.04-42,35c-13.41,12.39-24.64,26.62-36,42c-41.57,56.29-77.41,135.88-82,226
	c-7.72,151.49,52.07,257.67,132,329c13.65,12.19,27.08,24.57,42,35c22.59,15.79,48.6,30.08,75,40c28.08,10.55,57.37,20.77,89,26
	c43.9,7.26,89.09,7.31,132,1c110.16-16.19,187.92-69.29,249-136c43.18-47.17,75.55-107.06,91-180c1.13-5.36,1.89-10.52,3-16
	c1.04-5.14,1.26-10.37,2-16c2.71-20.68,6.11-42,6-64c-0.04-7.23-1.67-14.48-2-22c-0.35-8.1,0.08-16.44-1-24
	c-10.9-76.25-39.5-141.38-76-190c-7.7-10.26-14.46-20.64-23-30c-42.57-46.63-93.61-83.84-157-110c-49.82-20.56-112.33-31.82-177-28
	C523.31,152.23,511.31,152.83,498.62,154.5z M254.62,190.5c-2.89,2.26-4.83,4.32-7,7c-4.53,5.6-9.28,10.45-13,16
	c-5.2,7.76-10.77,15.97-14,25c12.88,4.89,11.52-12.25,20-15c5.45,4.55,12.99,7.01,15,15c-1.3,5.03-7.76,4.91-10,9
	c10.49-0.76,20.21,0.11,30-3c-6.5-13.5-21.67-18.33-27-33c3.04-7.62,12.11-9.22,17-15C264.44,192.01,259.4,191.38,254.62,190.5z
	 M822.62,195.5c-1.94,6.79,2.82,12.35,8,15c1.7-6.84,1.7-9.24,2-17C827.96,192.83,826.2,195.07,822.62,195.5z M837.62,199.5
	c-0.09,7.09,2.34,11.66,8,13c2.71-4.51-1.25-9.75,0-16C841.72,196.27,840.44,198.65,837.62,199.5z M284.62,208.5
	c-7.65-4.94-17.08,1.04-25,2c1.19,4.7,7.84,5.26,12,7c4.37,1.82,9.33,6.55,15,3C286.11,215.06,285.75,214.25,284.62,208.5z
	 M828.62,223.5c2.58,2.75,2,8.67,7,9c6.06-5.94,13.24-10.76,18-18C843.75,215.96,834.73,218.28,828.62,223.5z M858.62,217.5
	c-7.92,11.41-14.61,21.17-10,33c4.28,11.01,18.07,24.18,28,28c4.47-9.13,3.98-24.36,6-35c1.13-5.97,1.51-2.5-1-6
	c-2.6-3.62-3.56-8.86-6-10c-14.92-6.94-16.37,16.18-6,20c4.11,0.11,4-4,9-3c-0.68,6.65-1.7,12.96-7,15c-8.37-3.88-19.24-12.43-18-23
	c0.86-7.32,7.59-8.36,11-15C862.58,220.21,862.8,216.65,858.62,217.5z M231.62,256.5c1.72,2.69,10.02,2.74,13,1
	c-2.1-7.57-5.63-13.71-7-22c-0.22-0.78-0.84-1.16-2-1C232.69,240.24,233.23,249.44,231.62,256.5z M887.62,250.5
	c-0.44,4.13,3.19,12.8,5,18c1.67,0,3.33,0,5,0c1.74-8.5,1.57-16.13,1-23C893.58,245.79,888.75,246.3,887.62,250.5z M999.62,360.5
	c7.41-3.06,13.93,3.39,18,7c-1.27,2.4-4.38,2.95-4,7c9.48,8.52,10.79,25.21,24,30c0.26,14.26-3.63,24.37-11,31
	c0.46,6.19,2.35,12.57,4,18c1.63,5.39,2.72,12.07,7,15c2.28-18.95,4.87-38.58,8-57c1.66-9.76,1.45-19.96,6-28
	c4.91-0.71,3.81,4.58,8,2c1.8-2.82-0.66-6.43,0-13c-31.88-6.78-53.69-23.64-81-35C982.86,347.93,991.12,354.33,999.62,360.5z
	 M76.62,344.5c-1,0-2,0-3,0c-21.19,22.13-23.96,60.42-25,98c26.88,9.36,55.84,17.81,88,18c0.24-13.27,0.56-35.21,7-56
	c9.93-4.07,19.25-8.75,27-15C138.94,374.85,100.71,366.75,76.62,344.5z M1019.62,394.5c-5.66-10.8-11.53-21.92-18-31
	c-9.43,2.57-13.29,10.71-16,20c7.09,13.24,17.26,23.41,20,41c10.87-1.53,15.8,2.87,23,5
	C1033.27,416.27,1024.93,404.62,1019.62,394.5z M992.62,403.5c-2.5-5.77-7.42-22.27-15-19c-7.47,3.22-17.12,8.43-26,12
	c1.65,7.15,9.15,9.87,10,18c0.72,6.96-4.57,13.07-3,20c13.19-2.06,24.81-10.17,40-7C1001.1,420.08,996.02,411.35,992.62,403.5z
	 M1014.62,538.5c-0.67,0-1.33,0-2,0c-1.84,3.86-0.7,8.42,0,11c7.7-2.18,12.57-0.16,17,0c7.86,0.28,16.62-2.44,24,2
	c-14.12,6.55-27.94,13.39-43,19c-1.39,3.17-1.39,8.83,0,12c23.78-0.44,42.43,4.23,65,5c1.09-5.06,0.27-5.31,0-12
	c-4.64-0.13-9.16,0.18-13,0c-8.93-0.43-17.55-0.77-25-4c12.65-6.35,26.65-11.35,38-19c-0.46-4.87,1.05-11.71-1-15
	C1054.03,537.7,1026.79,537.57,1014.62,538.5z M33.62,552.5c-0.76,5.43,1.58,7.75,1,13c21.43-1.57,43.04-2.96,65-4
	c-0.37-3.96,0.92-9.58-1-12C79.08,551.26,52.39,550.51,33.62,552.5z M35.62,575.5c-1.68,4.65-0.54,7.63,0,11
	c6.38-0.47,13.79-0.48,20-1c7-0.59,15.05-4.3,19-1c-10.54,10.46-23.87,18.13-36,27c0.88,5.85-0.93,9.38,3,13
	c17.63-4.04,35.88-7.46,56-9c-5.86,3.2-1.16,11.08-1,17c-15.88,5.46-34.89,7.78-52,12c-0.36,5.02,0.62,8.72,2,12
	c18.77-2.56,32.99-9.67,53-11c0.89,5.44,1.41,11.26,4,15c3.31-1.03,7.64-1.03,10-3c-2.02-13.97-6.48-25.52-8-40
	c-1.18-1.48-3.78-1.56-5-3c6.8,0.76,2.75-6.1,3-10c-11.37-0.91-29.92,6.61-40,4c10.32-11.01,24.44-18.22,37-27
	c-0.33-3.67,0.85-8.85-1-11C75.33,573.22,59.81,572.51,35.62,575.5z M1005.62,622.5c2.99,13.58,27.57,25.33,46,22
	c10.13-1.83,20.13-12.81,21-24c1.98-25.59-19.01-36.32-46-31C1009.75,593.88,1002.48,608.23,1005.62,622.5z M996.62,655.5
	c-4.15,13.5-9.5,30.06-13,41c3.22,2.11,6.8,3.87,12,4c0.62-5.72,2.8-9.86,5-14c19.29,3.71,33.61,12.39,53,16
	c-0.02-5.02,2.69-7.31,3-12c-15.45-8.21-38.27-9.07-53-18c1.94-5.06,3.27-10.73,5-16c19.11,3.23,34.75,9.92,54,13
	c0.24-4.42,2.05-7.29,2-12c-23.23-5.44-41.55-9.72-65-15c-1.13,3.2-2.03,6.63-2,11c2.9,0.49,9.63,2.3,8,4
	C1002.95,656.51,1000.35,655.44,996.62,655.5z M51.62,677.5c3.46,16.54,8.42,31.58,14,46c4.18-0.49,7.03-2.3,10-4
	c-2.73-11.27-7.92-20.08-9-33c3.56-3.11,10.97-2.37,15-5c3.64,8.69,5.63,19.04,9,28c4.77,0.1,7.47-1.86,11-3
	c-1.96-13.11-17.85-34.83,5-31c3.2,8.8,5.06,18.94,9,27c4.07-0.26,6.79-1.88,10-3c-1.86-14.81-8.37-24.96-11-39
	C92.67,665.21,73.27,672.48,51.62,677.5z M67.62,728.5c0.89,4.11,1.76,8.24,5,10c9.03-2.3,15.85-6.82,25-9
	c5.88,14.26-9.29,24.39-15,36c3.63,7.7,7.82,14.85,11,23c13.84-2.54,22.52-15.42,35-16c-6.5,13.5-15.75,24.25-22,38
	c3.75,8.25,8.59,15.41,15,21c4.76-0.58,7.66-3,13-3c5.68,5.65,10.65,12.01,14,20c-1.46,4.88-5.79,6.88-7,12
	c2.45,3.55,4.03,7.97,8,10c11.98-19.02,22.96-39.04,37-56c-2.82-13.2-11.02-9.52-23-6c-14.11,4.14-33.63,11.72-46,11
	c4.8-4.93,14.4-10.7,25-17c7.84-4.66,33.4-15.1,21-25c-12.53,4.81-23.67,16.33-35,19c-0.39-3.8,3.75-5.44,6-9
	c1.95-3.08,2.79-7.42,5-11c6.19-10.01,17.71-18.03,8-27c-19.81,8.52-36.56,20.11-57,28c5.4-9.6,11.12-18.88,16-29
	c8.11,10.77,24.77,5.35,32-3c3.62-16.6-6.81-26.96-10-40C106.64,711.52,88.07,720.94,67.62,728.5z M977.62,715.5
	c-2.85,1.81-3.22,6.11-4,10c11.61,8.72,20.58,20.09,33,28c1.71,3.93,5.12,7.07,8,10c2.8,2.86,5.96,6.55,10,8
	c2.62-2.38,3.83-6.17,5-10c-2.83-4.83-8.71-6.62-11-12c3.54-6.13,4.79-14.55,9-20c4.21-1.1,8.93-0.78,16-1c1.71-3.95,3.65-7.68,5-12
	C1022.32,717.43,997.06,714.79,977.62,715.5z M962.62,746.5c-1.16,3.51-3.94,5.4-4,10c5.09,2.71,14.29,6.94,19,10
	c5.37,3.48,12.03,6.49,17,9c2.92,1.48,20.44,12.4,22,12c4.13-1.07,3.94-9.99,6-12C1002.08,766.37,983.62,755.17,962.62,746.5z
	 M943.62,801.5c2.36,5.36,8.72,7.24,9,13c-19.42-11.21-39.32,3.71-42,16c-4.55,20.88,23.31,46.79,45,40c3.99-1.25,12.72-8.74,16-14
	c8.95-14.34-1.51-27.34-8-36c19.78,12.49,47.45-2.77,43-26c-0.99-5.16-5.02-9.82-10-13c-3.15,1.85-6.4,3.6-8,7
	c8.45,8.83,6.49,24.38-7,25c-6.8,0.31-22.53-9.16-26-16c-6.6-13.01,4.23-20.56,16-19c-0.89-5.44,2.95-7.27,1-11
	C950.05,761.36,935.58,783.19,943.62,801.5z M198.62,827.5c-4.84,0.49-6.72,3.95-9,7c1.91,5.09,7.32,6.68,9,12
	c-12.66,12.67-29.09,21.58-40,36c2.83,2.5,3.96,6.71,8,8c14.48-10.85,25.5-25.17,41-35c4.43,1.91,4.76,7.9,10,9
	c1.54-3.46,6.49-3.51,7-8C215.7,847.09,206.79,837.67,198.62,827.5z M876.62,945.5c26.5,0.67,38.23-38.93,11-44
	c-11.61-2.16-17.28,5.53-31,8c-7.78-2.88-2.78-13.14,3-15c4.75-1.53,6.78,1.32,11,2c7.25-5.92,9.8-7.56,2-12
	c-13.46-7.67-32.17,5.1-32,19c0.32,25.98,33.23,16.78,45,10c2.7,1.63,4.76,3.91,6,7c-1.78,6.88-7.32,12.29-15,12
	c-4.33-0.16-5.24-4.14-9-3c-3.41,1.29-8.44,5.05-7,8C865.13,941.97,869.82,945.33,876.62,945.5z M898.62,906.5
	c19.39,15.91,46.15-7.73,41-27c-1.66-6.21-10.79-12.32-17-13c-12.14-1.32-20.89,9.95-31,11c-2.91-1.09-3.92-4.08-5-7
	c2.61-6.95,10.5-11.55,19-7c0.28-4.38,6.28-3.05,5-9c-5.16-4.21-13.07-4.94-18-4c-17.71,3.38-24.88,35.88-2,39
	c12.21,1.66,24.36-12.44,32-10c2.26,0.72,4.83,4.17,5,7c0.56,9.68-14.6,16.93-23,10C902.96,899.84,896.5,902.58,898.62,906.5z
	 M227.62,860.5c-17.05,13.95-32.6,29.4-47,46c2.71,2.95,4.63,6.71,9,8c14.82-16.18,30.91-31.09,45-48
	C232.42,864.36,230.53,861.92,227.62,860.5z M237.62,882.5c-14.86,2.09-30.77,22.01-32,34c-1.53,14.89,11.41,26.83,20,29
	c27.8,7.03,52.13-28.04,38-53C254.77,885.86,248.19,881.01,237.62,882.5z M279.62,906.5c-11.65,19.02-26.47,34.87-38,54
	c3.29,2.05,5.29,5.37,11,5c7.31-9.69,13.24-20.75,22-29c-1.23,14.11-2.97,27.69-3,43c5.95,5.38,14.81,7.86,21,13
	c6.63-1.7,9.01-7.66,15-10c4.98,5.35,14.1,6.56,19,12c0.18,5.67-2.45,11.05-1,15c17,7.67,33.18,16.15,52,22c2.7-2.01,5.79-7.7,4-11
	c-8.4-3.94-18.37-6.3-26-11c4.31-19.02,15.01-31.66,20-50c-3.66-1.34-7.19-2.81-11-4c-9.02,17.98-16.63,37.37-26,55
	c0.75-25.67,4.02-42.76,7-64c-9.22-9.8-14.74-1.48-22,5c-12.03,10.73-26.75,24.92-38,31c9.49-18.51,22.11-33.89,31-53
	c-4.02-0.31-3.96-4.71-9-4c-8.02,8.99-14.36,24.97-22,31c0.75-17.42,3.17-27.75,4-44C286.23,910.56,284.52,906.93,279.62,906.5z
	 M816.62,913.5c-12.08,3.13-8.5,11.37-5,23c4.4,14.59,8.75,36.71,12,49c4.73-1.61,9.28-3.39,12-7c-1.83-4.17-2.33-9.67-4-14
	c6.78-3.88,12-9.33,20-12c6.85,5.77,18.85,10.67,23-1C853.49,940.63,836.52,925.6,816.62,913.5z M763.62,946.5
	c5.54,11.13,12.5,20.84,17,33c-14.67-2.8-31.87-33.86-47-21c8.56,20.44,17.44,40.56,26,61c4.75-0.25,6.94-3.06,11-4
	c-2.17-15.16-11.39-23.28-15-37c13.58,7.42,24.34,17.66,38,25c3.08-2.92,9.78-2.22,11-7c-7.92-14.47-15.6-29.75-23-43
	c-2.54-4.55-5.37-9.36-9-13C768.23,941.1,764.78,942.66,763.62,946.5z M691.62,988.5c6.13,18.28,7.01,46.21,31,45
	c6.63-0.33,18.17-5.84,21-9c9.38-10.5,0.17-27.67-4-38c-3.73-9.24-6.29-17.98-11-26c-4.35,0.98-8.89,1.77-10,6
	c3.22,17.5,18.9,31.9,13,52c-18.55,8.17-19.29-7.46-24-21c-3.64-10.46-6.55-20.45-9-26c-3.87,1.46-9.67,0.99-11,5
	C686.89,980.37,689.98,983.59,691.62,988.5z M409.62,1041.5c3.5,2.5,8.57,3.43,14,4c8.97-11.7,12.35-28.99,22-40
	c0.62,13.95,1.17,27.38,1,46c5.2,0.47,9.08,2.25,15,2c5.63-15.04,10.43-30.91,18-44c-2.82,17.27-4.96,30.26-7,47
	c5.43-0.76,8.1,1.23,13,1c3.38-18.72,5.89-46.77,9-66c-6.04-1.96-14.34-1.66-20-4c-7.21,11.46-8.85,28.48-17,39
	c0-13.67,0-27.33,0-41c-4.63-1.37-8.77-3.23-15-3c-5.34,12.66-11.9,24.11-18,36c-1.25-12.11,2.53-30.29,3-41
	c-4.43-0.57-6.76-3.24-12-3C412.2,999.15,411.8,1019.1,409.62,1041.5z M647.62,990.5c-5.06,9.4-0.68,19.95,4,24
	c7.65,6.62,33.57,0.88,34,12c0.23,6.01-9.35,10.65-16,9c-5.27-1.31-5.22-5.03-8-9c-3.8,1.2-7.87,2.13-12,3
	c2.93,28.68,48.45,21.87,49-2c0.13-5.6-2.86-15.22-9-19c-8.32-5.12-25.83,1-32-8c0.91-5.84,6.93-8.79,12-8c5.36,0.84,4.7,6.08,9,7
	c2.7-2.3,7.96-2.04,9-6C685.84,974.63,653.86,978.92,647.62,990.5z M641.62,985.5c-13.66,3.91-28.64,5.13-42,7
	c0.37,3.96-0.92,9.58,1,12c5.92,0.25,9.8-1.53,15-2c3.21,17.79,5.38,36.62,8,55c4.46-0.54,9.02-0.98,13-2
	c-1.08-21.18-7.68-35.74-7-55c5.41-0.59,10.19-1.81,15-3C643.43,993.69,643.3,988.82,641.62,985.5z M502.62,991.5
	c-3.15,2.62-1.68,7.6-2,12c-1.43,19.7-6.37,41.13-6,55c5.24,1.55,7.48,2.26,12,1c2.56-12.11,0.89-28.44,5-39
	c5.63,14.37,12.31,27.69,19,41c5.53,1.35,7.91,0.14,14,0c-1.69-21.38,1.44-51.36,0-67c-4.66,0.46-6.42-1.97-10,0
	c-2.08,11.99-0.22,29.7-3,41c-6.98-13.69-12.44-28.89-19-43C508.17,993.28,506.62,991.17,502.62,991.5z M561.62,997.5
	c-4.17,2.55-4.89,7.52-7,11c-1.37,2.26-3.49,2.77-4,4c-6.97,16.66,0.83,41.35,13,47c13.39,6.21,33.08-0.85,42-10
	c-0.75-7.77-1.42-16.71-3-26c-12.47,1.02-17.63,0.79-26,3c0.27,3.4-0.77,8.11,1,10c2.06,2.11,9.99-2.21,13,1
	c-0.32,2.32,0.16,3.84,1,5c-7.73,9.09-20.85,10.51-27,2c-4.25-5.88-5.16-23-2-30c2.46-5.45,10.14-9.39,15-9
	c6.67,0.53,7.47,6.45,13,10c2.36-1.97,6.69-1.97,10-3C599.84,995.26,575.42,989.05,561.62,997.5z"/>
<path fill-rule="evenodd" d="M535.62,151.5c64.67-3.82,127.18,7.44,177,28c63.39,26.16,114.43,63.37,157,110
	c8.54,9.36,15.3,19.74,23,30c36.5,48.62,65.1,113.75,76,190c1.08,7.56,0.65,15.9,1,24c0.33,7.52,1.96,14.77,2,22
	c0.11,22-3.29,43.32-6,64c-0.74,5.63-0.96,10.86-2,16c-1.11,5.48-1.87,10.64-3,16c-15.45,72.94-47.82,132.83-91,180
	c-61.08,66.71-138.84,119.81-249,136c-42.91,6.31-88.1,6.26-132-1c-31.63-5.23-60.92-15.45-89-26c-26.4-9.92-52.41-24.21-75-40
	c-14.92-10.43-28.35-22.81-42-35c-79.93-71.33-139.72-177.51-132-329c4.59-90.12,40.43-169.71,82-226c11.36-15.38,22.59-29.61,36-42
	c12.95-11.96,26.4-22.88,42-35c47.98-37.27,114.29-69.29,188-79C511.31,152.83,523.31,152.23,535.62,151.5z M556.62,162.5
	c0.16,24.49-0.03,44.49,0,70c-64.83,1.51-114.38,18.29-155,44c2.4,9.26,6.28,17.05,13,22c29.44-18.04,67.17-31.62,109-38
	c10.78-1.64,22.68-4.87,33-1c1.65,9.11,1.65,24.89,0,34c-18.16-1.94-36.5,4.25-48,6c-23.53,3.57-42.25,12.26-60,21
	c-12.78,6.29-25.7,13.39-36,21c-3.23,2.39-5.42,7.43-10,7c-5.96-5.37-8.59-14.07-16-18c-26.49,22.84-50.3,48.37-67,81
	c11.83,7.5,23.62,15.05,37,21c20.8-29.53,41.56-59.11,73-78c16.59,26.08,37.61,47.72,53,75c-11.58,2.14-20.05,15.91-29,24
	c1.88,5.12,6.34,7.66,11,10c8.61-9.06,16.44-18.89,27-26c-6.57-14.09-16.47-24.87-23-39c22.3-15.7,51.27-24.73,85-29
	c1.55-8.04,0.77-16.2,0-22c-28.19,1.05-56.81,8.74-78,19c-7.39,3.58-13.4,9.37-21,10c-5.03-6.3-9.89-12.78-13-21
	c29.43-22.21,76.48-33.24,116-36c0.11,10.39-0.17,15.76,1,24c10.18,0.66,17.65,0.76,27,1c2.98-15.35,4.01-32.66,6-49
	c-4.83-1.7-12.82,0.39-19-2c0.01-9.58-0.45-27.6,3-37c5.91,1.42,13.5,1.16,20,2c2.29-8.87,2.26-17.69,3-26
	c-7.17-1.83-16.77-1.23-24-3c0.37-24.54,3.06-44.04,3-67C572.7,160.87,561.54,160.87,556.62,162.5z M252.62,303.5
	c18.88-8.15,37.66-19.45,60-25c22.75-5.65,46.63-8.84,71-14c11.51-38.25,40.92-64.18,68-86c0.3-0.24,8.52-1.4,3-4
	C368.52,198.73,302.95,243.49,252.62,303.5z M778.62,296.5c52.09,4.91,87.73,26.27,119,52c-42.13-70.2-103.76-120.91-182-155
	C742.7,221.75,762.8,256.99,778.62,296.5z M648.62,246.5c-1.94,7.06-5.28,12.72-7,20c21.47,6.53,42.02,13.98,60,24
	c2.9-5.9,9-13.49,9-19C692.58,260.54,673.22,250.9,648.62,246.5z M331.62,279.5c-17.21,18.13-35.13,35.16-50,56
	c-7.29,10.21-14.45,21.21-21,32c-6.83,11.26-9.88,24.78-20,34c-13.39-5.28-24.78-12.55-39-17c-2.72,5.61-4.97,11.69-7,18
	c22.23,4.6,43.14,18.74,67,25c12.53-33.13,30.08-61.25,50-87c15.66-19.04,32.95-36.66,52-51c6.47-4.87,14.59-9.12,18-17
	C367,271.41,348.25,275.68,331.62,279.5z M748.62,323.5c1.72-0.05,2.56,0.77,3,2c9.6-6.07,14.86-16.48,21-26
	c-2.21-0.79,0.19-6.19-4-5C762.07,304.28,752.58,311.12,748.62,323.5z M783.62,306.5c13.77,11.23,25.92,24.08,38,37
	c8.75-6.25,18.11-11.89,25-20c-18.86-10.93-39.39-17.96-64-21C782.55,304.24,782.85,305.61,783.62,306.5z M625.62,320.5
	c-2.26,7.74-6.39,13.61-12,18c-1.83,12.51-4.83,23.84-7,36c16.76,4.27,35.63,12.67,48,20c0.39,0.23,4.58,3.95,5,1
	c-0.92-11.15,1.25-22.11,0-32c-1.09-8.65-6.54-14.88-6-21c6.44,2.56,11.69,6.31,19,8c0.85-2.82,3.23-4.1,3-8
	C662.86,331.26,644.16,325.96,625.62,320.5z M714.62,363.5c-11.52,16.48-25.72,30.28-36,48c10.1,6.57,17,16.33,26,24
	c15.56-11.77,30.68-23.98,46-36C740.79,385.33,729.11,373,714.62,363.5z M431.62,403.5c-7.76,4.91-13.78,11.55-18,20
	c6.29,3.71,11.37,8.63,17,13c6.58-4.09,11.91-9.42,16-16C441.8,414.65,437.64,408.15,431.62,403.5z M933.62,417.5
	c-0.67,0-1.33,0-2,0c-13.88,6.2-28.52,10.77-42,16c-4.03,1.56-9.21,3.59-12,7c1.59,11.87,8.33,21.48,9,38
	c-23.28,7.39-50.15,11.18-72,20c4.55,3.78,10.42,6.25,17,8c2.3-1.95-1.92-6.44,1-9c19.14-3.19,40.76-9.24,58-11
	c4.68,25.5,5.47,51.54,5,78c-13.38,4.09-26.54-4.98-38-9c-0.43,7.89,0.01,9.95-1,16c16.64,1.65,29.61,2.92,48,4
	c4.72-32.37,2.92-64.83-3-92c14.12-5.21,32.56-6.11,47-11C946.74,451.05,938.17,436.29,933.62,417.5z M512.62,429.5
	c-5.35,2.44-12.22,3.9-15,9c16.42,28.25,34.68,54.65,52,82c-8.12-27.54-21.94-49.4-31-76c9-4.33,19.71-6.96,32-8
	c1.55,4.93,2.71,16.71,5,24c-0.05-14.61-0.46-28.87-2-42C536.96,419.62,523.57,424.5,512.62,429.5z M597.62,424.5
	c-2.21,13.46-7.29,29.37-7,42c4.94-7.39,3.49-21.18,12-25c12.75,2.92,19.43,11.9,31,16c2.96-4.04,6.97-7.03,9-12
	C629.77,436.35,616.81,427.31,597.62,424.5z M356.62,440.5c-9.75,20.58-18.47,42.2-23,68c9.43,2.57,19.61,4.39,31,5
	c1.85-15.49,5.48-29.18,13-39c13.7,6.64,29.73,10.94,43,18c-2.6,10.07-6.69,18.65-8,30c6.36,0.64,11.09,2.91,18,3
	c2.68-8.65,3.35-19.32,8-26c13.99,5.5,28.74,11.37,43,17c14.82,5.85,28.89,12.74,43,16C469.47,500.98,414.24,469.55,356.62,440.5z
	 M416.62,686.5c-3.1-2.67-7.02-6.31-10-10c-3.07-3.8-6.64-8.42-7-12c28.18-21.48,57.98-41.35,86-63c-36.49,17.51-71.21,36.79-106,56
	c1.89,6.78,7.57,9.76,9,17c-9.11,6.92-17.99,14.22-27,21c-9.34,7.02-19.01,15.12-30,19c-22.16-33.45-43.22-79.97-49-132
	c-5.11-46.04,1.98-89.14,14-127c-10.96-4.04-20.58-9.42-33-12c-8.1,12.85-13.18,21.81-23,35c-4,5.37-16.89,16.07-17,22
	c-0.08,4.51,8.31,12.67,11,18c3.45,6.83,6.43,15.18,7,23c0.75,10.26-4.14,25.15-3,40c1.29,16.81,3.24,33.82,8,45
	c7.61-1.06,14.15-3.19,21-5c11.3,40.03,27.5,75.16,47,107c-18.55,17.66-44.22,32.08-63,48c-2.33,1.98-8.42,3.52-6,8
	c21.32-10.68,35.93-28.07,56-40c10.03,13.3,21.7,24.97,32,38c-14.16,13.96-28.53,30.22-42,44c-4.5,4.6-11.71,8.69-11,16
	c4.68,2.89,6.82-2.91,9-5c20.19-19.41,38.14-41.77,56-62c-8.18-9.06-17.9-17.81-26-28c-0.76-0.96-8.11-10.1-8-11
	c0.24-2.05,9.84-6.61,13-9c13.52-10.23,25.08-21.64,38-29c9,9.67,16.26,21.07,26,30c16.95-15.59,32.93-33.63,49-51
	c16.04-17.33,32.37-34.92,46-52C460.79,645.34,440.56,667.77,416.62,686.5z M793.62,472.5c-19.26,7.07-38.13,14.53-57,22
	c3.73,8.94-0.1,25.43,14,24c0.33-3.67-0.85-8.85,1-11c16.42-3.58,32.25-7.75,48-12C798.8,486.65,795.3,480.49,793.62,472.5z
	 M627.62,473.5c-5.97,7.7-13.3,14.03-18,23c2.3,2.03,5.08,3.59,7,6c8.57-5.1,16.24-11.1,23-18
	C637.15,479.3,632.39,476.4,627.62,473.5z M491.62,485.5c5.61,3.39,8.75,9.25,16,11c0.21-1.12,1.11-1.56,2-2
	C507.2,487.22,496.37,472.68,491.62,485.5z M161.62,534.5c-1.41,25.49-1.44,46.36,0,65c6.41,83.21,42.68,159.28,83,210
	c4.76,5.98,9.07,12.5,14,17c0.62,0.56,3.47,4.68,5,2c-15.56-22.64-31.01-53.91-36-87c-5.54-36.72-3.09-73.5,9-107
	c-34.79-34.78-60.71-81.82-68-141c-0.06-0.61-0.15-1.18-1-1C164.18,504.38,162.46,519.4,161.62,534.5z M709.62,518.5
	c-0.21-1.21-1.11-0.61-2,0c-2.76-0.43-0.94,3.73-3,4c-1.33,5.33,5.33,2.67,4,8c-6.71,7.96-14.6,14.74-25,19
	c-0.58,25.81-9.36,45.71-19,65c3,5,12.08,3.92,14,10c-6.37,13.29-17.74,21.6-27,32c0.9,3.77,2.76,6.57,6,8c3,1.67,2.82-4.22,6-4
	c3.1,0.21,7.57,10.17,10,13c-1.94,2.39-5.12,3.55-6,7c2.06,2.94,4.52,5.48,6,9c4.67-0.33,4.82-5.18,10-5
	c5.71,7.29,13.54,12.46,17,22c-6.53,6.96-14.67,12.23-23,17c-12.74,7.29-25.03,17.04-42,19c-1.8-9.2-6.98-15.02-8-25
	c2.63-2.03,7.37-1.97,10-4c-0.38-5.29-3.52-7.81-5-12c-5.43-0.43-6.01,3.99-12,3c-1.33-5.34-4.14-9.2-5-15c1.37-3.3,8.02-1.32,8-6
	c-0.62-3.71-2.81-5.86-4-9c-12.73,4.64-29.02,10.93-45,9c0.14-12.89-2.36-23.88-3-35c10.18-4.58,21.08-2.28,31-7
	c-9.65-23.68-21.63-45.04-33-67c-8.77,62.23-16.96,125.04-24,189c0.15,3.51,6.12,1.22,6,5c-1.92,22.43-5.96,48.01-6,69
	c49.74,3.75,89.47-4.48,128-18c-0.99-8.67-5.65-13.69-9-20c-21.75,8.09-47.87,15.33-75,17c-11.24,0.69-25.34,1.12-36-3
	c3-14.18,0.98-35.8,4-47c3.69,0.76,18.22,0.22,26-1c-2.01-16.99-3.05-34.95-6-51c-2.25-1.66-11.58,1.91-16-2
	c-1.02-3.13-1.02-9.42,1-16c17.26,1.26,29.68-2.32,44-4c8.53,20.47,16.45,41.55,24,63c38.27-9.06,64.96-29.71,89-53
	c-2.31-5.62-7.81-9.13-12-13c-13.27-12.25-26.16-23.99-38-37c11.22-13.11,21.66-27.01,30-43c6.47,3.87,17.06,3.61,20,11
	c-2.29,8.04-7.91,12.75-10,21c12.21,8.46,26.12,15.21,39,23c6.63-10.04,11.56-21.77,18-32c4.25-0.25,5.38,2.62,10,2
	c2.1-7.24,6.39-12.28,7-21c-6.65-2.02-12.58-4.75-21-5c-2.86,7.48-4.12,16.55-9,22c-42.94-5.28-50.96-49.88-40-91
	c10.81-3.08,23.24,1.32,32-3C732.47,531.65,720.76,525.36,709.62,518.5z M805.62,537.5c5.42-0.24,9.73-1.6,16-1
	c-2.04-7.29-11.01-7.65-15-13c-1,0-2,0-3,0C803.33,529.13,804.17,533.61,805.62,537.5z M632.62,536.5c3.82-0.87,8.94-0.88,13-2
	c5.5-1.52,15.55-4.1,16-9C649.78,526.99,641.96,532.5,632.62,536.5z M773.62,547.5c-3.34,4.15-2.3,12.82-2,18
	c3.47,0.95,9.06,1.13,16,1c2.32-3.35,2.12-9.21,2-15C784.62,550.27,777.45,546.66,773.62,547.5z M472.62,549.5c0,1.67,0,3.33,0,5
	c10.2-1.13,21.86-0.8,30-4C492.76,548.04,483.35,548.29,472.62,549.5z M583.62,557.5c0,1,0,2,0,3c11.42,5.24,17.5,15.84,31,19
	C612.82,564.26,597.24,557.6,583.62,557.5z M408.62,563.5c-0.54,14.2,4.42,22.92,6,35c-15.13,3.87-28.84,9.16-44,13
	c-5.23-12.77-7.03-28.97-10-44c-10.48-0.15-20.33,0.34-29,2c0.36,13.25,2.27,25.87,5,34c9.01,0.32,16.13-5.37,24-3
	c0.25,8.08,2.98,13.68,5,20c43.97-15.36,87.4-31.27,129-49c-21.35,3.65-40.15,9.85-61,14c-3.14-6.53-3.49-15.85-5-24
	C422.07,562.29,416.26,562.01,408.62,563.5z M925.62,632.5c-10.82,14.06-21.25,26.27-34,37c-4.27,3.59-8.78,6.93-13,11
	c0.42,7.1,3.03,13.93,4,21c6.34,46.29-6.65,95.5-26,126c0.39,4.42,3.5-1.42,3-1c10.46-8.86,17.04-20.46,25-31
	c18.42-24.4,33.04-52.6,45-83c3.1-7.87,5.27-15.49,8-24c2.55-7.96,7.04-16.17,9-24c1.91-7.61,2.18-16.41,4-25
	c5.35-25.31,9.1-52.55,7-70C950.54,593.71,939.33,614.68,925.62,632.5z M609.62,591.5c-0.49,1.18-1.07,2.27-2,3
	c6.27,11.06,12.52,22.15,22,30c5.18-4.15,11.05-7.61,14-14C633.1,603.35,623.08,595.71,609.62,591.5z M425.62,758.5
	c3.59,2.41,5.06,6.94,11,7c6.71-9.29,10.25-21.75,18-30c12.61,4.72,20.79,13.88,36,16c11.46-31.82,20.7-65.18,32-97
	c3.74-10.53,9.84-20.7,10-32c-14.12,32.27-27.2,69.19-41,101c-1.89,4.36-3.25,10.66-8,13c-7.85-5.15-19.44-6.56-24-15
	c13.77-22.34,27.43-47.25,40-70c4.23-7.65,9.07-15.75,11-24C482.63,671.5,453,713.88,425.62,758.5z M846.62,631.5
	c-2.36,9.97-6.81,17.85-9,28c8.93,3.41,16.93,7.74,27,10c7.16-6.84,9.47-18.53,11-31C865.63,636.49,857.57,632.55,846.62,631.5z
	 M807.62,668.5c-15.55,34.11-38.79,60.54-64,85c3.79,6.21,8.48,11.52,14,16c29.19-25.15,53.74-54.93,70-93
	C820.54,674.25,816.25,669.2,807.62,668.5z M790.62,807.5c10.14,12.27,24,27.06,35,39c3.46,3.75,7.87,11.44,14,5
	c-1.9-10.08-11.18-14.59-17-21c-6.03-6.64-12.67-12.82-17-21c11.65-12.49,27.39-26.46,41-44c5.82-7.5,11.13-15.91,17-25
	c9.29-14.39,21.21-29.43,10-47C853.47,739.01,822.82,774.03,790.62,807.5z M420.62,822.5c31.82,17.88,73.22,31.41,116,35
	c2.56-3.64,1.83-8.29,2-16c-45.91-4.66-78.18-17.01-112-34C424.2,812.07,420.01,814.88,420.62,822.5z M390.62,813.5
	c-17,25-34.96,49.04-50,76c5.88,4.78,13.05,8.29,22,10c15.22-24.44,29.34-49.99,42-77C400.81,818.64,396.31,815.48,390.62,813.5z
	 M695.62,863.5c-1,0-1.19-0.81-2-1c-40.22,16.42-86.11,25.5-142,24c1.76,7.57,8.83,9.84,14,14c49.2,0.51,89.86-10.43,129-23
	c7.43,11.31,12.09,27.84,18,40c2.27,4.67,3.2,11.59,11,9C716.35,903.44,704.87,884.58,695.62,863.5z M605.62,928.5
	c-24.75-8.67-46.28-24.02-65-36c-20.31,9.15-46.86,20.88-75,24c-22.04,2.45-46.07,1.21-67-1c-14.85-1.57-28.08-7.59-41-7
	c26.93,13.43,58.64,28.09,94,38c74.82,20.97,169.01,18.9,237-8C661.31,939.67,631.54,937.57,605.62,928.5z"/>
</svg>
